<?xml version="1.0" encoding="UTF-8" standalone="no"?>
<!DOCTYPE svg PUBLIC "-//W3C//DTD SVG 1.1//EN"
 "http://www.w3.org/Graphics/SVG/1.1/DTD/svg11.dtd">
<!-- Generated by graphviz version 2.40.1 (20161225.0304)
 -->
<!-- Title: largeRelationshipsDiagram Pages: 1 -->
<svg width="249pt" height="765pt"
 viewBox="0.00 0.00 249.00 765.20" xmlns="http://www.w3.org/2000/svg" xmlns:xlink="http://www.w3.org/1999/xlink">
<g id="graph0" class="graph" transform="scale(1 1) rotate(0) translate(4 761.2)">
<title>largeRelationshipsDiagram</title>
<polygon fill="#ffffff" stroke="transparent" points="-4,4 -4,-761.2 245,-761.2 245,4 -4,4"/>
<text text-anchor="middle" x="72.4936" y="-7.3" font-family="Helvetica,sans-Serif" font-size="11.00" fill="#000000">Generated by SchemaSpy</text>
<!-- anuncios -->
<g id="node1" class="node">
<title>anuncios</title>
<g id="a_node1"><a xlink:href="../../tables/anuncios.html" xlink:title="anuncios" target="_top">
<polygon fill="#ffffff" stroke="transparent" points="143.5,-601.2 143.5,-753.2 230.5,-753.2 230.5,-601.2 143.5,-601.2"/>
<polygon fill="#f5f5f5" stroke="transparent" points="144,-730.2 144,-753.2 231,-753.2 231,-730.2 144,-730.2"/>
<polygon fill="none" stroke="#000000" points="144,-730.2 144,-753.2 231,-753.2 231,-730.2 144,-730.2"/>
<text text-anchor="start" x="148.9923" y="-739.3" font-family="Helvetica,sans-Serif" font-weight="bold" font-size="11.00" fill="#000000">anuncios</text>
<text text-anchor="start" x="196.5219" y="-738.3" font-family="Helvetica,sans-Serif" font-size="11.00" fill="#000000">[table]</text>
<polygon fill="none" stroke="#000000" points="144,-708.2 144,-730.2 231,-730.2 231,-708.2 144,-708.2"/>
<image xlink:href="../../images/primaryKeys.png" width="11px" height="12px" preserveAspectRatio="xMinYMin meet" x="149" y="-725.2"/>
<text text-anchor="start" x="169" y="-715.3" font-family="Helvetica,sans-Serif" font-size="11.00" fill="#000000">idanuncio</text>
<polygon fill="none" stroke="#000000" points="144,-686.2 144,-708.2 231,-708.2 231,-686.2 144,-686.2"/>
<image xlink:href="../../images/foreignKeys.png" width="11px" height="12px" preserveAspectRatio="xMinYMin meet" x="149" y="-703.2"/>
<text text-anchor="start" x="169" y="-693.3" font-family="Helvetica,sans-Serif" font-size="11.00" fill="#000000">idusuario</text>
<polygon fill="none" stroke="#000000" points="144,-664.2 144,-686.2 231,-686.2 231,-664.2 144,-664.2"/>
<text text-anchor="start" x="169" y="-671.3" font-family="Helvetica,sans-Serif" font-size="11.00" fill="#000000">titulo</text>
<polygon fill="none" stroke="#000000" points="144,-642.2 144,-664.2 231,-664.2 231,-642.2 144,-642.2"/>
<text text-anchor="start" x="169" y="-649.3" font-family="Helvetica,sans-Serif" font-size="11.00" fill="#000000">info</text>
<polygon fill="none" stroke="#000000" points="144,-620.2 144,-642.2 231,-642.2 231,-620.2 144,-620.2"/>
<text text-anchor="start" x="169" y="-627.3" font-family="Helvetica,sans-Serif" font-size="11.00" fill="#000000">precio</text>
<polygon fill="#ffffff" stroke="transparent" points="144,-601.2 144,-620.2 176,-620.2 176,-601.2 144,-601.2"/>
<polygon fill="none" stroke="#000000" points="144,-601.2 144,-620.2 176,-620.2 176,-601.2 144,-601.2"/>
<text text-anchor="start" x="147" y="-607.3" font-family="Helvetica,sans-Serif" font-size="11.00" fill="#000000">&lt; 1</text>
<polygon fill="#ffffff" stroke="transparent" points="176,-601.2 176,-620.2 213,-620.2 213,-601.2 176,-601.2"/>
<polygon fill="none" stroke="#000000" points="176,-601.2 176,-620.2 213,-620.2 213,-601.2 176,-601.2"/>
<text text-anchor="start" x="183.1105" y="-607.3" font-family="Helvetica,sans-Serif" font-size="11.00" fill="#000000">1 row</text>
<polygon fill="#ffffff" stroke="transparent" points="213,-601.2 213,-620.2 231,-620.2 231,-601.2 213,-601.2"/>
<polygon fill="none" stroke="#000000" points="213,-601.2 213,-620.2 231,-620.2 231,-601.2 213,-601.2"/>
<text text-anchor="start" x="221.8862" y="-607.3" font-family="Helvetica,sans-Serif" font-size="11.00" fill="#000000"> &#160;</text>
</a>
</g>
</g>
<!-- usuarios -->
<g id="node5" class="node">
<title>usuarios</title>
<g id="a_node5"><a xlink:href="../../tables/usuarios.html" xlink:title="usuarios" target="_top">
<polygon fill="#ffffff" stroke="transparent" points="8,-242.2 8,-460.2 92,-460.2 92,-242.2 8,-242.2"/>
<polygon fill="#f5f5f5" stroke="transparent" points="8,-437.2 8,-460.2 92,-460.2 92,-437.2 8,-437.2"/>
<polygon fill="none" stroke="#000000" points="8,-437.2 8,-460.2 92,-460.2 92,-437.2 8,-437.2"/>
<text text-anchor="start" x="12.7188" y="-446.3" font-family="Helvetica,sans-Serif" font-weight="bold" font-size="11.00" fill="#000000">usuarios</text>
<text text-anchor="start" x="57.5219" y="-445.3" font-family="Helvetica,sans-Serif" font-size="11.00" fill="#000000">[table]</text>
<polygon fill="none" stroke="#000000" points="8,-415.2 8,-437.2 92,-437.2 92,-415.2 8,-415.2"/>
<image xlink:href="../../images/primaryKeys.png" width="11px" height="12px" preserveAspectRatio="xMinYMin meet" x="13" y="-432.2"/>
<text text-anchor="start" x="32" y="-422.3" font-family="Helvetica,sans-Serif" font-size="11.00" fill="#000000">idusuario</text>
<polygon fill="#ffffff" stroke="transparent" points="8,-393.2 8,-415.2 92,-415.2 92,-393.2 8,-393.2"/>
<polygon fill="none" stroke="#000000" points="8,-393.2 8,-415.2 92,-415.2 92,-393.2 8,-393.2"/>
<text text-anchor="start" x="32" y="-400.3" font-family="Helvetica,sans-Serif" font-size="11.00" fill="#000000">username</text>
<polygon fill="none" stroke="#000000" points="8,-371.2 8,-393.2 92,-393.2 92,-371.2 8,-371.2"/>
<text text-anchor="start" x="32" y="-378.3" font-family="Helvetica,sans-Serif" font-size="11.00" fill="#000000">password</text>
<polygon fill="none" stroke="#000000" points="8,-349.2 8,-371.2 92,-371.2 92,-349.2 8,-349.2"/>
<text text-anchor="start" x="32" y="-356.3" font-family="Helvetica,sans-Serif" font-size="11.00" fill="#000000">status</text>
<polygon fill="none" stroke="#000000" points="8,-327.2 8,-349.2 92,-349.2 92,-327.2 8,-327.2"/>
<text text-anchor="start" x="32" y="-334.3" font-family="Helvetica,sans-Serif" font-size="11.00" fill="#000000">created</text>
<polygon fill="none" stroke="#000000" points="8,-305.2 8,-327.2 92,-327.2 92,-305.2 8,-305.2"/>
<text text-anchor="start" x="32" y="-312.3" font-family="Helvetica,sans-Serif" font-size="11.00" fill="#000000">admin</text>
<polygon fill="none" stroke="#000000" points="8,-283.2 8,-305.2 92,-305.2 92,-283.2 8,-283.2"/>
<text text-anchor="start" x="32" y="-290.3" font-family="Helvetica,sans-Serif" font-size="11.00" fill="#000000">colmado</text>
<polygon fill="none" stroke="#000000" points="8,-261.2 8,-283.2 92,-283.2 92,-261.2 8,-261.2"/>
<text text-anchor="start" x="32" y="-268.3" font-family="Helvetica,sans-Serif" font-size="11.00" fill="#000000">cliente</text>
<polygon fill="#ffffff" stroke="transparent" points="8,-242.2 8,-261.2 26,-261.2 26,-242.2 8,-242.2"/>
<polygon fill="none" stroke="#000000" points="8,-242.2 8,-261.2 26,-261.2 26,-242.2 8,-242.2"/>
<text text-anchor="start" x="11" y="-248.3" font-family="Helvetica,sans-Serif" font-size="11.00" fill="#000000"> &#160;</text>
<polygon fill="#ffffff" stroke="transparent" points="26,-242.2 26,-261.2 67,-261.2 67,-242.2 26,-242.2"/>
<polygon fill="none" stroke="#000000" points="26,-242.2 26,-261.2 67,-261.2 67,-242.2 26,-242.2"/>
<text text-anchor="start" x="31.6105" y="-248.3" font-family="Helvetica,sans-Serif" font-size="11.00" fill="#000000">9 rows</text>
<polygon fill="#ffffff" stroke="transparent" points="67,-242.2 67,-261.2 92,-261.2 92,-242.2 67,-242.2"/>
<polygon fill="none" stroke="#000000" points="67,-242.2 67,-261.2 92,-261.2 92,-242.2 67,-242.2"/>
<text text-anchor="start" x="73.4053" y="-248.3" font-family="Helvetica,sans-Serif" font-size="11.00" fill="#000000">4 &gt;</text>
</a>
</g>
</g>
<!-- anuncios&#45;&gt;usuarios -->
<g id="edge1" class="edge">
<title>anuncios:w&#45;&gt;usuarios:e</title>
<path fill="none" stroke="#000000" d="M130.7104,-691.2878C94.0773,-651.6567 147.9313,-426.2 92,-426.2"/>
<polygon fill="#000000" stroke="#000000" points="136.6907,-693.9482 142.5367,-700.4892 140.3453,-695.5741 144,-697.2 144,-697.2 144,-697.2 140.3453,-695.5741 145.4633,-693.9108 136.6907,-693.9482 136.6907,-693.9482"/>
<ellipse fill="none" stroke="#000000" cx="133.7669" cy="-692.6475" rx="3.2" ry="3.2"/>
</g>
<!-- colmados -->
<g id="node2" class="node">
<title>colmados</title>
<g id="a_node2"><a xlink:href="../../tables/colmados.html" xlink:title="colmados" target="_top">
<polygon fill="#ffffff" stroke="transparent" points="142,-406.2 142,-580.2 232,-580.2 232,-406.2 142,-406.2"/>
<polygon fill="#f5f5f5" stroke="transparent" points="142,-557.2 142,-580.2 232,-580.2 232,-557.2 142,-557.2"/>
<polygon fill="none" stroke="#000000" points="142,-557.2 142,-580.2 232,-580.2 232,-557.2 142,-557.2"/>
<text text-anchor="start" x="146.9688" y="-566.3" font-family="Helvetica,sans-Serif" font-weight="bold" font-size="11.00" fill="#000000">colmados</text>
<text text-anchor="start" x="197.5219" y="-565.3" font-family="Helvetica,sans-Serif" font-size="11.00" fill="#000000">[table]</text>
<polygon fill="none" stroke="#000000" points="142,-535.2 142,-557.2 232,-557.2 232,-535.2 142,-535.2"/>
<image xlink:href="../../images/primaryKeys.png" width="11px" height="12px" preserveAspectRatio="xMinYMin meet" x="147" y="-552.2"/>
<text text-anchor="start" x="169" y="-542.3" font-family="Helvetica,sans-Serif" font-size="11.00" fill="#000000">idplanta</text>
<polygon fill="none" stroke="#000000" points="142,-513.2 142,-535.2 232,-535.2 232,-513.2 142,-513.2"/>
<image xlink:href="../../images/foreignKeys.png" width="11px" height="12px" preserveAspectRatio="xMinYMin meet" x="147" y="-530.2"/>
<text text-anchor="start" x="169" y="-520.3" font-family="Helvetica,sans-Serif" font-size="11.00" fill="#000000">idusuario</text>
<polygon fill="none" stroke="#000000" points="142,-491.2 142,-513.2 232,-513.2 232,-491.2 142,-491.2"/>
<text text-anchor="start" x="169" y="-498.3" font-family="Helvetica,sans-Serif" font-size="11.00" fill="#000000">nombre</text>
<polygon fill="none" stroke="#000000" points="142,-469.2 142,-491.2 232,-491.2 232,-469.2 142,-469.2"/>
<text text-anchor="start" x="169" y="-476.3" font-family="Helvetica,sans-Serif" font-size="11.00" fill="#000000">rnc</text>
<polygon fill="none" stroke="#000000" points="142,-447.2 142,-469.2 232,-469.2 232,-447.2 142,-447.2"/>
<text text-anchor="start" x="169" y="-454.3" font-family="Helvetica,sans-Serif" font-size="11.00" fill="#000000">ubicacion</text>
<polygon fill="none" stroke="#000000" points="142,-425.2 142,-447.2 232,-447.2 232,-425.2 142,-425.2"/>
<text text-anchor="start" x="169" y="-432.3" font-family="Helvetica,sans-Serif" font-size="11.00" fill="#000000">owner</text>
<polygon fill="#ffffff" stroke="transparent" points="142,-406.2 142,-425.2 172,-425.2 172,-406.2 142,-406.2"/>
<polygon fill="none" stroke="#000000" points="142,-406.2 142,-425.2 172,-425.2 172,-406.2 142,-406.2"/>
<text text-anchor="start" x="145" y="-412.3" font-family="Helvetica,sans-Serif" font-size="11.00" fill="#000000">&lt; 1</text>
<polygon fill="#ffffff" stroke="transparent" points="172,-406.2 172,-425.2 215,-425.2 215,-406.2 172,-406.2"/>
<polygon fill="none" stroke="#000000" points="172,-406.2 172,-425.2 215,-425.2 215,-406.2 172,-406.2"/>
<text text-anchor="start" x="179.6105" y="-412.3" font-family="Helvetica,sans-Serif" font-size="11.00" fill="#000000">0 rows</text>
<polygon fill="#ffffff" stroke="transparent" points="215,-406.2 215,-425.2 232,-425.2 232,-406.2 215,-406.2"/>
<polygon fill="none" stroke="#000000" points="215,-406.2 215,-425.2 232,-425.2 232,-406.2 215,-406.2"/>
<text text-anchor="start" x="222.8862" y="-412.3" font-family="Helvetica,sans-Serif" font-size="11.00" fill="#000000"> &#160;</text>
</a>
</g>
</g>
<!-- colmados&#45;&gt;usuarios -->
<g id="edge2" class="edge">
<title>colmados:w&#45;&gt;usuarios:e</title>
<path fill="none" stroke="#000000" d="M128.1468,-520.2369C103.2603,-501.9027 134.9759,-426.2 92,-426.2"/>
<polygon fill="#000000" stroke="#000000" points="134.3085,-521.9996 141.0098,-527.6612 138.1543,-523.0998 142,-524.2 142,-524.2 142,-524.2 138.1543,-523.0998 142.9902,-520.7388 134.3085,-521.9996 134.3085,-521.9996"/>
<ellipse fill="none" stroke="#000000" cx="131.232" cy="-521.1194" rx="3.2" ry="3.2"/>
</g>
<!-- pedidos -->
<g id="node3" class="node">
<title>pedidos</title>
<g id="a_node3"><a xlink:href="../../tables/pedidos.html" xlink:title="pedidos" target="_top">
<polygon fill="#ffffff" stroke="transparent" points="141,-233.2 141,-385.2 233,-385.2 233,-233.2 141,-233.2"/>
<polygon fill="#f5f5f5" stroke="transparent" points="141,-362.2 141,-385.2 233,-385.2 233,-362.2 141,-362.2"/>
<polygon fill="none" stroke="#000000" points="141,-362.2 141,-385.2 233,-385.2 233,-362.2 141,-362.2"/>
<text text-anchor="start" x="146" y="-371.3" font-family="Helvetica,sans-Serif" font-weight="bold" font-size="11.00" fill="#000000">pedidos</text>
<text text-anchor="start" x="198.0437" y="-370.3" font-family="Helvetica,sans-Serif" font-size="11.00" fill="#000000">[table]</text>
<polygon fill="none" stroke="#000000" points="141,-340.2 141,-362.2 233,-362.2 233,-340.2 141,-340.2"/>
<image xlink:href="../../images/primaryKeys.png" width="11px" height="12px" preserveAspectRatio="xMinYMin meet" x="146" y="-357.2"/>
<text text-anchor="start" x="161" y="-347.3" font-family="Helvetica,sans-Serif" font-size="11.00" fill="#000000">idpedido</text>
<polygon fill="none" stroke="#000000" points="141,-318.2 141,-340.2 233,-340.2 233,-318.2 141,-318.2"/>
<image xlink:href="../../images/foreignKeys.png" width="11px" height="12px" preserveAspectRatio="xMinYMin meet" x="146" y="-335.2"/>
<text text-anchor="start" x="161" y="-325.3" font-family="Helvetica,sans-Serif" font-size="11.00" fill="#000000">idusuario</text>
<polygon fill="none" stroke="#000000" points="141,-296.2 141,-318.2 233,-318.2 233,-296.2 141,-296.2"/>
<text text-anchor="start" x="161" y="-303.3" font-family="Helvetica,sans-Serif" font-size="11.00" fill="#000000">cantidad</text>
<polygon fill="none" stroke="#000000" points="141,-274.2 141,-296.2 233,-296.2 233,-274.2 141,-274.2"/>
<text text-anchor="start" x="161" y="-281.3" font-family="Helvetica,sans-Serif" font-size="11.00" fill="#000000">ubicacion</text>
<polygon fill="none" stroke="#000000" points="141,-252.2 141,-274.2 233,-274.2 233,-252.2 141,-252.2"/>
<text text-anchor="start" x="161" y="-259.3" font-family="Helvetica,sans-Serif" font-size="11.00" fill="#000000">water_brand</text>
<polygon fill="#ffffff" stroke="transparent" points="141,-233.2 141,-252.2 172,-252.2 172,-233.2 141,-233.2"/>
<polygon fill="none" stroke="#000000" points="141,-233.2 141,-252.2 172,-252.2 172,-233.2 141,-233.2"/>
<text text-anchor="start" x="144" y="-239.3" font-family="Helvetica,sans-Serif" font-size="11.00" fill="#000000">&lt; 1</text>
<polygon fill="#ffffff" stroke="transparent" points="172,-233.2 172,-252.2 215,-252.2 215,-233.2 172,-233.2"/>
<polygon fill="none" stroke="#000000" points="172,-233.2 172,-252.2 215,-252.2 215,-233.2 172,-233.2"/>
<text text-anchor="start" x="179.6105" y="-239.3" font-family="Helvetica,sans-Serif" font-size="11.00" fill="#000000">3 rows</text>
<polygon fill="#ffffff" stroke="transparent" points="215,-233.2 215,-252.2 233,-252.2 233,-233.2 215,-233.2"/>
<polygon fill="none" stroke="#000000" points="215,-233.2 215,-252.2 233,-252.2 233,-233.2 215,-233.2"/>
<text text-anchor="start" x="223.8862" y="-239.3" font-family="Helvetica,sans-Serif" font-size="11.00" fill="#000000"> &#160;</text>
</a>
</g>
</g>
<!-- pedidos&#45;&gt;usuarios -->
<g id="edge3" class="edge">
<title>pedidos:w&#45;&gt;usuarios:e</title>
<path fill="none" stroke="#000000" d="M127.0083,-333.368C103.1018,-351.9344 134.262,-426.2 92,-426.2"/>
<polygon fill="#000000" stroke="#000000" points="133.3329,-331.484 142.0278,-332.6502 137.1665,-330.342 141,-329.2 141,-329.2 141,-329.2 137.1665,-330.342 139.9722,-325.7498 133.3329,-331.484 133.3329,-331.484"/>
<ellipse fill="none" stroke="#000000" cx="130.2661" cy="-332.3976" rx="3.2" ry="3.2"/>
</g>
<!-- plantas -->
<g id="node4" class="node">
<title>plantas</title>
<g id="a_node4"><a xlink:href="../../tables/plantas.html" xlink:title="plantas" target="_top">
<polygon fill="#ffffff" stroke="transparent" points="148,-38.2 148,-212.2 226,-212.2 226,-38.2 148,-38.2"/>
<polygon fill="#f5f5f5" stroke="transparent" points="148,-189.2 148,-212.2 226,-212.2 226,-189.2 148,-189.2"/>
<polygon fill="none" stroke="#000000" points="148,-189.2 148,-212.2 226,-212.2 226,-189.2 148,-189.2"/>
<text text-anchor="start" x="152.7713" y="-198.3" font-family="Helvetica,sans-Serif" font-weight="bold" font-size="11.00" fill="#000000">plantas</text>
<text text-anchor="start" x="191.5219" y="-197.3" font-family="Helvetica,sans-Serif" font-size="11.00" fill="#000000">[table]</text>
<polygon fill="none" stroke="#000000" points="148,-167.2 148,-189.2 226,-189.2 226,-167.2 148,-167.2"/>
<image xlink:href="../../images/primaryKeys.png" width="11px" height="12px" preserveAspectRatio="xMinYMin meet" x="153" y="-184.2"/>
<text text-anchor="start" x="169" y="-174.3" font-family="Helvetica,sans-Serif" font-size="11.00" fill="#000000">idplanta</text>
<polygon fill="none" stroke="#000000" points="148,-145.2 148,-167.2 226,-167.2 226,-145.2 148,-145.2"/>
<image xlink:href="../../images/foreignKeys.png" width="11px" height="12px" preserveAspectRatio="xMinYMin meet" x="153" y="-162.2"/>
<text text-anchor="start" x="169" y="-152.3" font-family="Helvetica,sans-Serif" font-size="11.00" fill="#000000">idusuario</text>
<polygon fill="#ffffff" stroke="transparent" points="148,-123.2 148,-145.2 226,-145.2 226,-123.2 148,-123.2"/>
<polygon fill="none" stroke="#000000" points="148,-123.2 148,-145.2 226,-145.2 226,-123.2 148,-123.2"/>
<text text-anchor="start" x="169" y="-130.3" font-family="Helvetica,sans-Serif" font-size="11.00" fill="#000000">nombre</text>
<polygon fill="#ffffff" stroke="transparent" points="148,-101.2 148,-123.2 226,-123.2 226,-101.2 148,-101.2"/>
<polygon fill="none" stroke="#000000" points="148,-101.2 148,-123.2 226,-123.2 226,-101.2 148,-101.2"/>
<text text-anchor="start" x="169" y="-108.3" font-family="Helvetica,sans-Serif" font-size="11.00" fill="#000000">rnc</text>
<polygon fill="none" stroke="#000000" points="148,-79.2 148,-101.2 226,-101.2 226,-79.2 148,-79.2"/>
<text text-anchor="start" x="169" y="-86.3" font-family="Helvetica,sans-Serif" font-size="11.00" fill="#000000">ubicacion</text>
<polygon fill="none" stroke="#000000" points="148,-57.2 148,-79.2 226,-79.2 226,-57.2 148,-57.2"/>
<text text-anchor="start" x="169" y="-64.3" font-family="Helvetica,sans-Serif" font-size="11.00" fill="#000000">owner</text>
<polygon fill="#ffffff" stroke="transparent" points="148,-38.2 148,-57.2 172,-57.2 172,-38.2 148,-38.2"/>
<polygon fill="none" stroke="#000000" points="148,-38.2 148,-57.2 172,-57.2 172,-38.2 148,-38.2"/>
<text text-anchor="start" x="151" y="-44.3" font-family="Helvetica,sans-Serif" font-size="11.00" fill="#000000">&lt; 1</text>
<polygon fill="#ffffff" stroke="transparent" points="172,-38.2 172,-57.2 212,-57.2 212,-38.2 172,-38.2"/>
<polygon fill="none" stroke="#000000" points="172,-38.2 172,-57.2 212,-57.2 212,-38.2 172,-38.2"/>
<text text-anchor="start" x="176.6105" y="-44.3" font-family="Helvetica,sans-Serif" font-size="11.00" fill="#000000">0 rows</text>
<polygon fill="#ffffff" stroke="transparent" points="212,-38.2 212,-57.2 226,-57.2 226,-38.2 212,-38.2"/>
<polygon fill="none" stroke="#000000" points="212,-38.2 212,-57.2 226,-57.2 226,-38.2 212,-38.2"/>
<text text-anchor="start" x="216.8862" y="-44.3" font-family="Helvetica,sans-Serif" font-size="11.00" fill="#000000"> &#160;</text>
</a>
</g>
</g>
<!-- plantas&#45;&gt;usuarios -->
<g id="edge4" class="edge">
<title>plantas:w&#45;&gt;usuarios:e</title>
<path fill="none" stroke="#000000" d="M134.6318,-162.0904C97.4345,-201.5753 147.8913,-426.2 92,-426.2"/>
<polygon fill="#000000" stroke="#000000" points="140.6792,-159.4258 149.4516,-159.4944 144.3396,-157.8129 148,-156.2 148,-156.2 148,-156.2 144.3396,-157.8129 146.5484,-152.9056 140.6792,-159.4258 140.6792,-159.4258"/>
<ellipse fill="none" stroke="#000000" cx="137.7508" cy="-160.7161" rx="3.2" ry="3.2"/>
</g>
</g>
</svg>
