<?xml version="1.0" encoding="UTF-8" standalone="no"?>
<!DOCTYPE svg PUBLIC "-//W3C//DTD SVG 1.1//EN"
 "http://www.w3.org/Graphics/SVG/1.1/DTD/svg11.dtd">
<!-- Generated by graphviz version 2.40.1 (20161225.0304)
 -->
<!-- Title: oneDegreeRelationshipsDiagram Pages: 1 -->
<svg width="388pt" height="206pt"
 viewBox="0.00 0.00 388.00 206.20" xmlns="http://www.w3.org/2000/svg" xmlns:xlink="http://www.w3.org/1999/xlink">
<g id="graph0" class="graph" transform="scale(1 1) rotate(0) translate(4 202.2)">
<title>oneDegreeRelationshipsDiagram</title>
<polygon fill="#ffffff" stroke="transparent" points="-4,4 -4,-202.2 384,-202.2 384,4 -4,4"/>
<text text-anchor="middle" x="72.4936" y="-7.3" font-family="Helvetica,sans-Serif" font-size="11.00" fill="#000000">Generated by SchemaSpy</text>
<!-- anuncios -->
<g id="node1" class="node">
<title>anuncios</title>
<g id="a_node1"><a xlink:href="../../tables/anuncios.html" xlink:title="anuncios" target="_top">
<polygon fill="#ffffff" stroke="transparent" points="141,-38.2 141,-194.2 372,-194.2 372,-38.2 141,-38.2"/>
<polygon fill="#f5f5f5" stroke="transparent" points="143.5,-169.2 143.5,-192.2 370.5,-192.2 370.5,-169.2 143.5,-169.2"/>
<polygon fill="none" stroke="#000000" points="143.5,-169.2 143.5,-192.2 370.5,-192.2 370.5,-169.2 143.5,-169.2"/>
<text text-anchor="start" x="148.5" y="-178.3" font-family="Helvetica,sans-Serif" font-weight="bold" font-size="11.00" fill="#000000">anuncios</text>
<text text-anchor="start" x="335.5437" y="-177.3" font-family="Helvetica,sans-Serif" font-size="11.00" fill="#000000">[table]</text>
<polygon fill="none" stroke="#000000" points="143.5,-147.2 143.5,-169.2 220.5,-169.2 220.5,-147.2 143.5,-147.2"/>
<image xlink:href="../../images/primaryKeys.png" width="11px" height="12px" preserveAspectRatio="xMinYMin meet" x="148.5" y="-164.2"/>
<text text-anchor="start" x="163.5" y="-154.3" font-family="Helvetica,sans-Serif" font-size="11.00" fill="#000000">idanuncio</text>
<polygon fill="none" stroke="#000000" points="220.5,-147.2 220.5,-169.2 370.5,-169.2 370.5,-147.2 220.5,-147.2"/>
<text text-anchor="start" x="223.5" y="-154.9" font-family="Helvetica,sans-Serif" font-size="11.00" fill="#000000">integer[2000000000,10]</text>
<polygon fill="none" stroke="#000000" points="143.5,-125.2 143.5,-147.2 220.5,-147.2 220.5,-125.2 143.5,-125.2"/>
<image xlink:href="../../images/foreignKeys.png" width="11px" height="12px" preserveAspectRatio="xMinYMin meet" x="148.5" y="-142.2"/>
<text text-anchor="start" x="163.5" y="-132.3" font-family="Helvetica,sans-Serif" font-size="11.00" fill="#000000">idusuario</text>
<polygon fill="none" stroke="#000000" points="220.5,-125.2 220.5,-147.2 370.5,-147.2 370.5,-125.2 220.5,-125.2"/>
<text text-anchor="start" x="223.5" y="-132.9" font-family="Helvetica,sans-Serif" font-size="11.00" fill="#000000">integer[2000000000,10]</text>
<polygon fill="none" stroke="#000000" points="143.5,-103.2 143.5,-125.2 220.5,-125.2 220.5,-103.2 143.5,-103.2"/>
<text text-anchor="start" x="163.5" y="-110.3" font-family="Helvetica,sans-Serif" font-size="11.00" fill="#000000">titulo</text>
<polygon fill="none" stroke="#000000" points="220.5,-103.2 220.5,-125.2 370.5,-125.2 370.5,-103.2 220.5,-103.2"/>
<text text-anchor="start" x="223.0568" y="-110.9" font-family="Helvetica,sans-Serif" font-size="11.00" fill="#000000">varchar(255)[2000000000,10]</text>
<polygon fill="none" stroke="#000000" points="143.5,-81.2 143.5,-103.2 220.5,-103.2 220.5,-81.2 143.5,-81.2"/>
<text text-anchor="start" x="163.5" y="-88.3" font-family="Helvetica,sans-Serif" font-size="11.00" fill="#000000">info</text>
<polygon fill="none" stroke="#000000" points="220.5,-81.2 220.5,-103.2 370.5,-103.2 370.5,-81.2 220.5,-81.2"/>
<text text-anchor="start" x="223.5" y="-88.9" font-family="Helvetica,sans-Serif" font-size="11.00" fill="#000000">text[2000000000,10]</text>
<polygon fill="none" stroke="#000000" points="143.5,-59.2 143.5,-81.2 220.5,-81.2 220.5,-59.2 143.5,-59.2"/>
<text text-anchor="start" x="163.5" y="-66.3" font-family="Helvetica,sans-Serif" font-size="11.00" fill="#000000">precio</text>
<polygon fill="none" stroke="#000000" points="220.5,-59.2 220.5,-81.2 370.5,-81.2 370.5,-59.2 220.5,-59.2"/>
<text text-anchor="start" x="223.5" y="-66.9" font-family="Helvetica,sans-Serif" font-size="11.00" fill="#000000">float[2000000000,10]</text>
<polygon fill="#ffffff" stroke="transparent" points="143.5,-40.2 143.5,-59.2 176.5,-59.2 176.5,-40.2 143.5,-40.2"/>
<polygon fill="none" stroke="#000000" points="143.5,-40.2 143.5,-59.2 176.5,-59.2 176.5,-40.2 143.5,-40.2"/>
<text text-anchor="start" x="146.5" y="-46.3" font-family="Helvetica,sans-Serif" font-size="11.00" fill="#000000">&lt; 1</text>
<polygon fill="#ffffff" stroke="transparent" points="176.5,-40.2 176.5,-59.2 220.5,-59.2 220.5,-40.2 176.5,-40.2"/>
<polygon fill="none" stroke="#000000" points="176.5,-40.2 176.5,-59.2 220.5,-59.2 220.5,-40.2 176.5,-40.2"/>
<text text-anchor="start" x="190.6105" y="-46.3" font-family="Helvetica,sans-Serif" font-size="11.00" fill="#000000">1 row</text>
<polygon fill="#ffffff" stroke="transparent" points="220.5,-40.2 220.5,-59.2 370.5,-59.2 370.5,-40.2 220.5,-40.2"/>
<polygon fill="none" stroke="#000000" points="220.5,-40.2 220.5,-59.2 370.5,-59.2 370.5,-40.2 220.5,-40.2"/>
<text text-anchor="start" x="351.9053" y="-46.3" font-family="Helvetica,sans-Serif" font-size="11.00" fill="#000000">0 &gt;</text>
<polygon fill="none" stroke="#000000" stroke-width="2" points="142,-39.2 142,-193.2 371,-193.2 371,-39.2 142,-39.2"/>
</a>
</g>
</g>
<!-- usuarios -->
<g id="node2" class="node">
<title>usuarios</title>
<g id="a_node2"><a xlink:href="../../tables/usuarios.html" xlink:title="usuarios" target="_top">
<polygon fill="#ffffff" stroke="transparent" points="8,-65.7 8,-170.7 92,-170.7 92,-65.7 8,-65.7"/>
<polygon fill="#f5f5f5" stroke="transparent" points="8,-147.2 8,-170.2 92,-170.2 92,-147.2 8,-147.2"/>
<polygon fill="none" stroke="#000000" points="8,-147.2 8,-170.2 92,-170.2 92,-147.2 8,-147.2"/>
<text text-anchor="start" x="12.7188" y="-156.3" font-family="Helvetica,sans-Serif" font-weight="bold" font-size="11.00" fill="#000000">usuarios</text>
<text text-anchor="start" x="57.5219" y="-155.3" font-family="Helvetica,sans-Serif" font-size="11.00" fill="#000000">[table]</text>
<polygon fill="none" stroke="#000000" points="8,-125.2 8,-147.2 92,-147.2 92,-125.2 8,-125.2"/>
<image xlink:href="../../images/primaryKeys.png" width="11px" height="12px" preserveAspectRatio="xMinYMin meet" x="13" y="-142.2"/>
<text text-anchor="start" x="32" y="-132.3" font-family="Helvetica,sans-Serif" font-size="11.00" fill="#000000">idusuario</text>
<polygon fill="#ffffff" stroke="transparent" points="8,-103.2 8,-125.2 92,-125.2 92,-103.2 8,-103.2"/>
<polygon fill="none" stroke="#000000" points="8,-103.2 8,-125.2 92,-125.2 92,-103.2 8,-103.2"/>
<text text-anchor="start" x="32" y="-110.3" font-family="Helvetica,sans-Serif" font-size="11.00" fill="#000000">username</text>
<polygon fill="none" stroke="#000000" points="8,-84.2 8,-103.2 92,-103.2 92,-84.2 8,-84.2"/>
<text text-anchor="start" x="11" y="-90.3" font-family="Helvetica,sans-Serif" font-size="11.00" fill="#000000">...</text>
<polygon fill="#ffffff" stroke="transparent" points="8,-65.2 8,-84.2 26,-84.2 26,-65.2 8,-65.2"/>
<polygon fill="none" stroke="#000000" points="8,-65.2 8,-84.2 26,-84.2 26,-65.2 8,-65.2"/>
<text text-anchor="start" x="11" y="-71.3" font-family="Helvetica,sans-Serif" font-size="11.00" fill="#000000"> &#160;</text>
<polygon fill="#ffffff" stroke="transparent" points="26,-65.2 26,-84.2 67,-84.2 67,-65.2 26,-65.2"/>
<polygon fill="none" stroke="#000000" points="26,-65.2 26,-84.2 67,-84.2 67,-65.2 26,-65.2"/>
<text text-anchor="start" x="31.6105" y="-71.3" font-family="Helvetica,sans-Serif" font-size="11.00" fill="#000000">9 rows</text>
<polygon fill="#ffffff" stroke="transparent" points="67,-65.2 67,-84.2 92,-84.2 92,-65.2 67,-65.2"/>
<polygon fill="none" stroke="#000000" points="67,-65.2 67,-84.2 92,-84.2 92,-65.2 67,-65.2"/>
<text text-anchor="start" x="73.4053" y="-71.3" font-family="Helvetica,sans-Serif" font-size="11.00" fill="#000000">4 &gt;</text>
</a>
</g>
</g>
<!-- anuncios&#45;&gt;usuarios -->
<g id="edge1" class="edge">
<title>anuncios:w&#45;&gt;usuarios:e</title>
<path fill="none" stroke="#000000" d="M129.0156,-136.2C116.6771,-136.2 109.1667,-136.2 92,-136.2"/>
<polygon fill="#000000" stroke="#000000" points="135.5,-136.2001 143.5,-139.8 139.5,-136.2 143.5,-136.2 143.5,-136.2 143.5,-136.2 139.5,-136.2 143.5,-132.6 135.5,-136.2001 135.5,-136.2001"/>
<ellipse fill="none" stroke="#000000" cx="132.3" cy="-136.2001" rx="3.2" ry="3.2"/>
</g>
</g>
</svg>
