<?xml version="1.0" encoding="UTF-8" standalone="no"?>
<!DOCTYPE svg PUBLIC "-//W3C//DTD SVG 1.1//EN"
 "http://www.w3.org/Graphics/SVG/1.1/DTD/svg11.dtd">
<!-- Generated by graphviz version 2.40.1 (20161225.0304)
 -->
<!-- Title: twoDegreesRelationshipsDiagram Pages: 1 -->
<svg width="388pt" height="453pt"
 viewBox="0.00 0.00 388.00 452.70" xmlns="http://www.w3.org/2000/svg" xmlns:xlink="http://www.w3.org/1999/xlink">
<g id="graph0" class="graph" transform="scale(1 1) rotate(0) translate(4 448.7)">
<title>twoDegreesRelationshipsDiagram</title>
<polygon fill="#ffffff" stroke="transparent" points="-4,4 -4,-448.7 384,-448.7 384,4 -4,4"/>
<text text-anchor="middle" x="72.4936" y="-7.3" font-family="Helvetica,sans-Serif" font-size="11.00" fill="#000000">Generated by SchemaSpy</text>
<!-- anuncios -->
<g id="node1" class="node">
<title>anuncios</title>
<g id="a_node1"><a xlink:href="../../tables/anuncios.html" xlink:title="anuncios" target="_top">
<polygon fill="#ffffff" stroke="transparent" points="141,-284.7 141,-440.7 372,-440.7 372,-284.7 141,-284.7"/>
<polygon fill="#f5f5f5" stroke="transparent" points="143.5,-415.7 143.5,-438.7 370.5,-438.7 370.5,-415.7 143.5,-415.7"/>
<polygon fill="none" stroke="#000000" points="143.5,-415.7 143.5,-438.7 370.5,-438.7 370.5,-415.7 143.5,-415.7"/>
<text text-anchor="start" x="148.5" y="-424.8" font-family="Helvetica,sans-Serif" font-weight="bold" font-size="11.00" fill="#000000">anuncios</text>
<text text-anchor="start" x="335.5437" y="-423.8" font-family="Helvetica,sans-Serif" font-size="11.00" fill="#000000">[table]</text>
<polygon fill="none" stroke="#000000" points="143.5,-393.7 143.5,-415.7 220.5,-415.7 220.5,-393.7 143.5,-393.7"/>
<image xlink:href="../../images/primaryKeys.png" width="11px" height="12px" preserveAspectRatio="xMinYMin meet" x="148.5" y="-410.7"/>
<text text-anchor="start" x="163.5" y="-400.8" font-family="Helvetica,sans-Serif" font-size="11.00" fill="#000000">idanuncio</text>
<polygon fill="none" stroke="#000000" points="220.5,-393.7 220.5,-415.7 370.5,-415.7 370.5,-393.7 220.5,-393.7"/>
<text text-anchor="start" x="223.5" y="-401.4" font-family="Helvetica,sans-Serif" font-size="11.00" fill="#000000">integer[2000000000,10]</text>
<polygon fill="none" stroke="#000000" points="143.5,-371.7 143.5,-393.7 220.5,-393.7 220.5,-371.7 143.5,-371.7"/>
<image xlink:href="../../images/foreignKeys.png" width="11px" height="12px" preserveAspectRatio="xMinYMin meet" x="148.5" y="-388.7"/>
<text text-anchor="start" x="163.5" y="-378.8" font-family="Helvetica,sans-Serif" font-size="11.00" fill="#000000">idusuario</text>
<polygon fill="none" stroke="#000000" points="220.5,-371.7 220.5,-393.7 370.5,-393.7 370.5,-371.7 220.5,-371.7"/>
<text text-anchor="start" x="223.5" y="-379.4" font-family="Helvetica,sans-Serif" font-size="11.00" fill="#000000">integer[2000000000,10]</text>
<polygon fill="none" stroke="#000000" points="143.5,-349.7 143.5,-371.7 220.5,-371.7 220.5,-349.7 143.5,-349.7"/>
<text text-anchor="start" x="163.5" y="-356.8" font-family="Helvetica,sans-Serif" font-size="11.00" fill="#000000">titulo</text>
<polygon fill="none" stroke="#000000" points="220.5,-349.7 220.5,-371.7 370.5,-371.7 370.5,-349.7 220.5,-349.7"/>
<text text-anchor="start" x="223.0568" y="-357.4" font-family="Helvetica,sans-Serif" font-size="11.00" fill="#000000">varchar(255)[2000000000,10]</text>
<polygon fill="none" stroke="#000000" points="143.5,-327.7 143.5,-349.7 220.5,-349.7 220.5,-327.7 143.5,-327.7"/>
<text text-anchor="start" x="163.5" y="-334.8" font-family="Helvetica,sans-Serif" font-size="11.00" fill="#000000">info</text>
<polygon fill="none" stroke="#000000" points="220.5,-327.7 220.5,-349.7 370.5,-349.7 370.5,-327.7 220.5,-327.7"/>
<text text-anchor="start" x="223.5" y="-335.4" font-family="Helvetica,sans-Serif" font-size="11.00" fill="#000000">text[2000000000,10]</text>
<polygon fill="none" stroke="#000000" points="143.5,-305.7 143.5,-327.7 220.5,-327.7 220.5,-305.7 143.5,-305.7"/>
<text text-anchor="start" x="163.5" y="-312.8" font-family="Helvetica,sans-Serif" font-size="11.00" fill="#000000">precio</text>
<polygon fill="none" stroke="#000000" points="220.5,-305.7 220.5,-327.7 370.5,-327.7 370.5,-305.7 220.5,-305.7"/>
<text text-anchor="start" x="223.5" y="-313.4" font-family="Helvetica,sans-Serif" font-size="11.00" fill="#000000">float[2000000000,10]</text>
<polygon fill="#ffffff" stroke="transparent" points="143.5,-286.7 143.5,-305.7 176.5,-305.7 176.5,-286.7 143.5,-286.7"/>
<polygon fill="none" stroke="#000000" points="143.5,-286.7 143.5,-305.7 176.5,-305.7 176.5,-286.7 143.5,-286.7"/>
<text text-anchor="start" x="146.5" y="-292.8" font-family="Helvetica,sans-Serif" font-size="11.00" fill="#000000">&lt; 1</text>
<polygon fill="#ffffff" stroke="transparent" points="176.5,-286.7 176.5,-305.7 220.5,-305.7 220.5,-286.7 176.5,-286.7"/>
<polygon fill="none" stroke="#000000" points="176.5,-286.7 176.5,-305.7 220.5,-305.7 220.5,-286.7 176.5,-286.7"/>
<text text-anchor="start" x="190.6105" y="-292.8" font-family="Helvetica,sans-Serif" font-size="11.00" fill="#000000">1 row</text>
<polygon fill="#ffffff" stroke="transparent" points="220.5,-286.7 220.5,-305.7 370.5,-305.7 370.5,-286.7 220.5,-286.7"/>
<polygon fill="none" stroke="#000000" points="220.5,-286.7 220.5,-305.7 370.5,-305.7 370.5,-286.7 220.5,-286.7"/>
<text text-anchor="start" x="351.9053" y="-292.8" font-family="Helvetica,sans-Serif" font-size="11.00" fill="#000000">0 &gt;</text>
<polygon fill="none" stroke="#000000" stroke-width="2" points="142,-285.7 142,-439.7 371,-439.7 371,-285.7 142,-285.7"/>
</a>
</g>
</g>
<!-- usuarios -->
<g id="node2" class="node">
<title>usuarios</title>
<g id="a_node2"><a xlink:href="../../tables/usuarios.html" xlink:title="usuarios" target="_top">
<polygon fill="#ffffff" stroke="transparent" points="8,-118.2 8,-223.2 92,-223.2 92,-118.2 8,-118.2"/>
<polygon fill="#f5f5f5" stroke="transparent" points="8,-199.7 8,-222.7 92,-222.7 92,-199.7 8,-199.7"/>
<polygon fill="none" stroke="#000000" points="8,-199.7 8,-222.7 92,-222.7 92,-199.7 8,-199.7"/>
<text text-anchor="start" x="12.7188" y="-208.8" font-family="Helvetica,sans-Serif" font-weight="bold" font-size="11.00" fill="#000000">usuarios</text>
<text text-anchor="start" x="57.5219" y="-207.8" font-family="Helvetica,sans-Serif" font-size="11.00" fill="#000000">[table]</text>
<polygon fill="none" stroke="#000000" points="8,-177.7 8,-199.7 92,-199.7 92,-177.7 8,-177.7"/>
<image xlink:href="../../images/primaryKeys.png" width="11px" height="12px" preserveAspectRatio="xMinYMin meet" x="13" y="-194.7"/>
<text text-anchor="start" x="32" y="-184.8" font-family="Helvetica,sans-Serif" font-size="11.00" fill="#000000">idusuario</text>
<polygon fill="#ffffff" stroke="transparent" points="8,-155.7 8,-177.7 92,-177.7 92,-155.7 8,-155.7"/>
<polygon fill="none" stroke="#000000" points="8,-155.7 8,-177.7 92,-177.7 92,-155.7 8,-155.7"/>
<text text-anchor="start" x="32" y="-162.8" font-family="Helvetica,sans-Serif" font-size="11.00" fill="#000000">username</text>
<polygon fill="none" stroke="#000000" points="8,-136.7 8,-155.7 92,-155.7 92,-136.7 8,-136.7"/>
<text text-anchor="start" x="11" y="-142.8" font-family="Helvetica,sans-Serif" font-size="11.00" fill="#000000">...</text>
<polygon fill="#ffffff" stroke="transparent" points="8,-117.7 8,-136.7 26,-136.7 26,-117.7 8,-117.7"/>
<polygon fill="none" stroke="#000000" points="8,-117.7 8,-136.7 26,-136.7 26,-117.7 8,-117.7"/>
<text text-anchor="start" x="11" y="-123.8" font-family="Helvetica,sans-Serif" font-size="11.00" fill="#000000"> &#160;</text>
<polygon fill="#ffffff" stroke="transparent" points="26,-117.7 26,-136.7 67,-136.7 67,-117.7 26,-117.7"/>
<polygon fill="none" stroke="#000000" points="26,-117.7 26,-136.7 67,-136.7 67,-117.7 26,-117.7"/>
<text text-anchor="start" x="31.6105" y="-123.8" font-family="Helvetica,sans-Serif" font-size="11.00" fill="#000000">9 rows</text>
<polygon fill="#ffffff" stroke="transparent" points="67,-117.7 67,-136.7 92,-136.7 92,-117.7 67,-117.7"/>
<polygon fill="none" stroke="#000000" points="67,-117.7 67,-136.7 92,-136.7 92,-117.7 67,-117.7"/>
<text text-anchor="start" x="73.4053" y="-123.8" font-family="Helvetica,sans-Serif" font-size="11.00" fill="#000000">4 &gt;</text>
</a>
</g>
</g>
<!-- anuncios&#45;&gt;usuarios -->
<g id="edge1" class="edge">
<title>anuncios:w&#45;&gt;usuarios:e</title>
<path fill="none" stroke="#000000" d="M129.2006,-380.5213C69.3118,-359.2078 175.6331,-188.7 92,-188.7"/>
<polygon fill="#000000" stroke="#000000" points="135.5913,-381.495 142.9577,-386.2589 139.5456,-382.0975 143.5,-382.7 143.5,-382.7 143.5,-382.7 139.5456,-382.0975 144.0423,-379.1411 135.5913,-381.495 135.5913,-381.495"/>
<ellipse fill="none" stroke="#000000" cx="132.4278" cy="-381.0129" rx="3.2" ry="3.2"/>
</g>
<!-- colmados -->
<g id="node3" class="node">
<title>colmados</title>
<g id="a_node3"><a xlink:href="../../tables/colmados.html" xlink:title="colmados" target="_top">
<polygon fill="#ffffff" stroke="transparent" points="211.5,-202.2 211.5,-263.2 301.5,-263.2 301.5,-202.2 211.5,-202.2"/>
<polygon fill="#f5f5f5" stroke="transparent" points="211.5,-239.7 211.5,-262.7 301.5,-262.7 301.5,-239.7 211.5,-239.7"/>
<polygon fill="none" stroke="#000000" points="211.5,-239.7 211.5,-262.7 301.5,-262.7 301.5,-239.7 211.5,-239.7"/>
<text text-anchor="start" x="216.4688" y="-248.8" font-family="Helvetica,sans-Serif" font-weight="bold" font-size="11.00" fill="#000000">colmados</text>
<text text-anchor="start" x="267.0219" y="-247.8" font-family="Helvetica,sans-Serif" font-size="11.00" fill="#000000">[table]</text>
<polygon fill="none" stroke="#000000" points="211.5,-220.7 211.5,-239.7 301.5,-239.7 301.5,-220.7 211.5,-220.7"/>
<text text-anchor="start" x="214.5" y="-226.8" font-family="Helvetica,sans-Serif" font-size="11.00" fill="#000000">...</text>
<polygon fill="#ffffff" stroke="transparent" points="211.5,-201.7 211.5,-220.7 241.5,-220.7 241.5,-201.7 211.5,-201.7"/>
<polygon fill="none" stroke="#000000" points="211.5,-201.7 211.5,-220.7 241.5,-220.7 241.5,-201.7 211.5,-201.7"/>
<text text-anchor="start" x="214.5" y="-207.8" font-family="Helvetica,sans-Serif" font-size="11.00" fill="#000000">&lt; 1</text>
<polygon fill="#ffffff" stroke="transparent" points="241.5,-201.7 241.5,-220.7 284.5,-220.7 284.5,-201.7 241.5,-201.7"/>
<polygon fill="none" stroke="#000000" points="241.5,-201.7 241.5,-220.7 284.5,-220.7 284.5,-201.7 241.5,-201.7"/>
<text text-anchor="start" x="249.1105" y="-207.8" font-family="Helvetica,sans-Serif" font-size="11.00" fill="#000000">0 rows</text>
<polygon fill="#ffffff" stroke="transparent" points="284.5,-201.7 284.5,-220.7 301.5,-220.7 301.5,-201.7 284.5,-201.7"/>
<polygon fill="none" stroke="#000000" points="284.5,-201.7 284.5,-220.7 301.5,-220.7 301.5,-201.7 284.5,-201.7"/>
<text text-anchor="start" x="292.3862" y="-207.8" font-family="Helvetica,sans-Serif" font-size="11.00" fill="#000000"> &#160;</text>
</a>
</g>
</g>
<!-- colmados&#45;&gt;usuarios -->
<g id="edge2" class="edge">
<title>colmados:w&#45;&gt;usuarios:e</title>
<path fill="none" stroke="#000000" d="M196.9178,-228.6865C153.5697,-222.3729 142.8861,-188.7 92,-188.7"/>
<polygon fill="#000000" stroke="#000000" points="203.5193,-229.1453 211.2504,-233.2913 207.5096,-229.4226 211.5,-229.7 211.5,-229.7 211.5,-229.7 207.5096,-229.4226 211.7496,-226.1087 203.5193,-229.1453 203.5193,-229.1453"/>
<ellipse fill="none" stroke="#000000" cx="200.327" cy="-228.9234" rx="3.2" ry="3.2"/>
</g>
<!-- pedidos -->
<g id="node4" class="node">
<title>pedidos</title>
<g id="a_node4"><a xlink:href="../../tables/pedidos.html" xlink:title="pedidos" target="_top">
<polygon fill="#ffffff" stroke="transparent" points="216,-120.2 216,-181.2 297,-181.2 297,-120.2 216,-120.2"/>
<polygon fill="#f5f5f5" stroke="transparent" points="216.5,-157.7 216.5,-180.7 297.5,-180.7 297.5,-157.7 216.5,-157.7"/>
<polygon fill="none" stroke="#000000" points="216.5,-157.7 216.5,-180.7 297.5,-180.7 297.5,-157.7 216.5,-157.7"/>
<text text-anchor="start" x="221.2423" y="-166.8" font-family="Helvetica,sans-Serif" font-weight="bold" font-size="11.00" fill="#000000">pedidos</text>
<text text-anchor="start" x="263.0219" y="-165.8" font-family="Helvetica,sans-Serif" font-size="11.00" fill="#000000">[table]</text>
<polygon fill="none" stroke="#000000" points="216.5,-138.7 216.5,-157.7 297.5,-157.7 297.5,-138.7 216.5,-138.7"/>
<text text-anchor="start" x="219.5" y="-144.8" font-family="Helvetica,sans-Serif" font-size="11.00" fill="#000000">...</text>
<polygon fill="#ffffff" stroke="transparent" points="216.5,-119.7 216.5,-138.7 242.5,-138.7 242.5,-119.7 216.5,-119.7"/>
<polygon fill="none" stroke="#000000" points="216.5,-119.7 216.5,-138.7 242.5,-138.7 242.5,-119.7 216.5,-119.7"/>
<text text-anchor="start" x="219.5" y="-125.8" font-family="Helvetica,sans-Serif" font-size="11.00" fill="#000000">&lt; 1</text>
<polygon fill="#ffffff" stroke="transparent" points="242.5,-119.7 242.5,-138.7 282.5,-138.7 282.5,-119.7 242.5,-119.7"/>
<polygon fill="none" stroke="#000000" points="242.5,-119.7 242.5,-138.7 282.5,-138.7 282.5,-119.7 242.5,-119.7"/>
<text text-anchor="start" x="247.1105" y="-125.8" font-family="Helvetica,sans-Serif" font-size="11.00" fill="#000000">3 rows</text>
<polygon fill="#ffffff" stroke="transparent" points="282.5,-119.7 282.5,-138.7 297.5,-138.7 297.5,-119.7 282.5,-119.7"/>
<polygon fill="none" stroke="#000000" points="282.5,-119.7 282.5,-138.7 297.5,-138.7 297.5,-119.7 282.5,-119.7"/>
<text text-anchor="start" x="288.3862" y="-125.8" font-family="Helvetica,sans-Serif" font-size="11.00" fill="#000000"> &#160;</text>
</a>
</g>
</g>
<!-- pedidos&#45;&gt;usuarios -->
<g id="edge3" class="edge">
<title>pedidos:w&#45;&gt;usuarios:e</title>
<path fill="none" stroke="#000000" d="M201.9424,-148.6334C156.4025,-154.7362 145.0226,-188.7 92,-188.7"/>
<polygon fill="#000000" stroke="#000000" points="208.5164,-148.2119 216.7304,-151.2926 212.5082,-147.956 216.5,-147.7 216.5,-147.7 216.5,-147.7 212.5082,-147.956 216.2696,-144.1074 208.5164,-148.2119 208.5164,-148.2119"/>
<ellipse fill="none" stroke="#000000" cx="205.323" cy="-148.4167" rx="3.2" ry="3.2"/>
</g>
<!-- plantas -->
<g id="node5" class="node">
<title>plantas</title>
<g id="a_node5"><a xlink:href="../../tables/plantas.html" xlink:title="plantas" target="_top">
<polygon fill="#ffffff" stroke="transparent" points="217.5,-38.2 217.5,-99.2 295.5,-99.2 295.5,-38.2 217.5,-38.2"/>
<polygon fill="#f5f5f5" stroke="transparent" points="217.5,-75.7 217.5,-98.7 295.5,-98.7 295.5,-75.7 217.5,-75.7"/>
<polygon fill="none" stroke="#000000" points="217.5,-75.7 217.5,-98.7 295.5,-98.7 295.5,-75.7 217.5,-75.7"/>
<text text-anchor="start" x="222.2713" y="-84.8" font-family="Helvetica,sans-Serif" font-weight="bold" font-size="11.00" fill="#000000">plantas</text>
<text text-anchor="start" x="261.0219" y="-83.8" font-family="Helvetica,sans-Serif" font-size="11.00" fill="#000000">[table]</text>
<polygon fill="none" stroke="#000000" points="217.5,-56.7 217.5,-75.7 295.5,-75.7 295.5,-56.7 217.5,-56.7"/>
<text text-anchor="start" x="220.5" y="-62.8" font-family="Helvetica,sans-Serif" font-size="11.00" fill="#000000">...</text>
<polygon fill="#ffffff" stroke="transparent" points="217.5,-37.7 217.5,-56.7 241.5,-56.7 241.5,-37.7 217.5,-37.7"/>
<polygon fill="none" stroke="#000000" points="217.5,-37.7 217.5,-56.7 241.5,-56.7 241.5,-37.7 217.5,-37.7"/>
<text text-anchor="start" x="220.5" y="-43.8" font-family="Helvetica,sans-Serif" font-size="11.00" fill="#000000">&lt; 1</text>
<polygon fill="#ffffff" stroke="transparent" points="241.5,-37.7 241.5,-56.7 281.5,-56.7 281.5,-37.7 241.5,-37.7"/>
<polygon fill="none" stroke="#000000" points="241.5,-37.7 241.5,-56.7 281.5,-56.7 281.5,-37.7 241.5,-37.7"/>
<text text-anchor="start" x="246.1105" y="-43.8" font-family="Helvetica,sans-Serif" font-size="11.00" fill="#000000">0 rows</text>
<polygon fill="#ffffff" stroke="transparent" points="281.5,-37.7 281.5,-56.7 295.5,-56.7 295.5,-37.7 281.5,-37.7"/>
<polygon fill="none" stroke="#000000" points="281.5,-37.7 281.5,-56.7 295.5,-56.7 295.5,-37.7 281.5,-37.7"/>
<text text-anchor="start" x="286.3862" y="-43.8" font-family="Helvetica,sans-Serif" font-size="11.00" fill="#000000"> &#160;</text>
</a>
</g>
</g>
<!-- plantas&#45;&gt;usuarios -->
<g id="edge4" class="edge">
<title>plantas:w&#45;&gt;usuarios:e</title>
<path fill="none" stroke="#000000" d="M202.9396,-66.3618C171.8223,-69.4586 159.18,-83.4845 133,-109.7 105.0472,-137.6907 131.5581,-188.7 92,-188.7"/>
<polygon fill="#000000" stroke="#000000" points="209.5083,-66.0633 217.6635,-69.2963 213.5041,-65.8816 217.5,-65.7 217.5,-65.7 217.5,-65.7 213.5041,-65.8816 217.3365,-62.1037 209.5083,-66.0633 209.5083,-66.0633"/>
<ellipse fill="none" stroke="#000000" cx="206.3116" cy="-66.2086" rx="3.2" ry="3.2"/>
</g>
</g>
</svg>
