<?xml version="1.0" encoding="UTF-8" standalone="no"?>
<!DOCTYPE svg PUBLIC "-//W3C//DTD SVG 1.1//EN"
 "http://www.w3.org/Graphics/SVG/1.1/DTD/svg11.dtd">
<!-- Generated by graphviz version 2.40.1 (20161225.0304)
 -->
<!-- Title: oneDegreeRelationshipsDiagram Pages: 1 -->
<svg width="403pt" height="206pt"
 viewBox="0.00 0.00 403.00 206.20" xmlns="http://www.w3.org/2000/svg" xmlns:xlink="http://www.w3.org/1999/xlink">
<g id="graph0" class="graph" transform="scale(1 1) rotate(0) translate(4 202.2)">
<title>oneDegreeRelationshipsDiagram</title>
<polygon fill="#ffffff" stroke="transparent" points="-4,4 -4,-202.2 399,-202.2 399,4 -4,4"/>
<text text-anchor="middle" x="72.4936" y="-7.3" font-family="Helvetica,sans-Serif" font-size="11.00" fill="#000000">Generated by SchemaSpy</text>
<!-- pedidos -->
<g id="node1" class="node">
<title>pedidos</title>
<g id="a_node1"><a xlink:href="../../tables/pedidos.html" xlink:title="pedidos" target="_top">
<polygon fill="#ffffff" stroke="transparent" points="141,-38.2 141,-194.2 387,-194.2 387,-38.2 141,-38.2"/>
<polygon fill="#f5f5f5" stroke="transparent" points="143,-169.2 143,-192.2 385,-192.2 385,-169.2 143,-169.2"/>
<polygon fill="none" stroke="#000000" points="143,-169.2 143,-192.2 385,-192.2 385,-169.2 143,-169.2"/>
<text text-anchor="start" x="148" y="-178.3" font-family="Helvetica,sans-Serif" font-weight="bold" font-size="11.00" fill="#000000">pedidos</text>
<text text-anchor="start" x="350.0437" y="-177.3" font-family="Helvetica,sans-Serif" font-size="11.00" fill="#000000">[table]</text>
<polygon fill="none" stroke="#000000" points="143,-147.2 143,-169.2 235,-169.2 235,-147.2 143,-147.2"/>
<image xlink:href="../../images/primaryKeys.png" width="11px" height="12px" preserveAspectRatio="xMinYMin meet" x="148" y="-164.2"/>
<text text-anchor="start" x="163" y="-154.3" font-family="Helvetica,sans-Serif" font-size="11.00" fill="#000000">idpedido</text>
<polygon fill="none" stroke="#000000" points="235,-147.2 235,-169.2 385,-169.2 385,-147.2 235,-147.2"/>
<text text-anchor="start" x="238" y="-154.9" font-family="Helvetica,sans-Serif" font-size="11.00" fill="#000000">integer[2000000000,10]</text>
<polygon fill="none" stroke="#000000" points="143,-125.2 143,-147.2 235,-147.2 235,-125.2 143,-125.2"/>
<image xlink:href="../../images/foreignKeys.png" width="11px" height="12px" preserveAspectRatio="xMinYMin meet" x="148" y="-142.2"/>
<text text-anchor="start" x="163" y="-132.3" font-family="Helvetica,sans-Serif" font-size="11.00" fill="#000000">idusuario</text>
<polygon fill="none" stroke="#000000" points="235,-125.2 235,-147.2 385,-147.2 385,-125.2 235,-125.2"/>
<text text-anchor="start" x="238" y="-132.9" font-family="Helvetica,sans-Serif" font-size="11.00" fill="#000000">integer[2000000000,10]</text>
<polygon fill="none" stroke="#000000" points="143,-103.2 143,-125.2 235,-125.2 235,-103.2 143,-103.2"/>
<text text-anchor="start" x="163" y="-110.3" font-family="Helvetica,sans-Serif" font-size="11.00" fill="#000000">cantidad</text>
<polygon fill="none" stroke="#000000" points="235,-103.2 235,-125.2 385,-125.2 385,-103.2 235,-103.2"/>
<text text-anchor="start" x="238" y="-110.9" font-family="Helvetica,sans-Serif" font-size="11.00" fill="#000000">integer[2000000000,10]</text>
<polygon fill="none" stroke="#000000" points="143,-81.2 143,-103.2 235,-103.2 235,-81.2 143,-81.2"/>
<text text-anchor="start" x="163" y="-88.3" font-family="Helvetica,sans-Serif" font-size="11.00" fill="#000000">ubicacion</text>
<polygon fill="none" stroke="#000000" points="235,-81.2 235,-103.2 385,-103.2 385,-81.2 235,-81.2"/>
<text text-anchor="start" x="237.5568" y="-88.9" font-family="Helvetica,sans-Serif" font-size="11.00" fill="#000000">varchar(255)[2000000000,10]</text>
<polygon fill="none" stroke="#000000" points="143,-59.2 143,-81.2 235,-81.2 235,-59.2 143,-59.2"/>
<text text-anchor="start" x="163" y="-66.3" font-family="Helvetica,sans-Serif" font-size="11.00" fill="#000000">water_brand</text>
<polygon fill="none" stroke="#000000" points="235,-59.2 235,-81.2 385,-81.2 385,-59.2 235,-59.2"/>
<text text-anchor="start" x="237.5568" y="-66.9" font-family="Helvetica,sans-Serif" font-size="11.00" fill="#000000">varchar(255)[2000000000,10]</text>
<polygon fill="#ffffff" stroke="transparent" points="143,-40.2 143,-59.2 180,-59.2 180,-40.2 143,-40.2"/>
<polygon fill="none" stroke="#000000" points="143,-40.2 143,-59.2 180,-59.2 180,-40.2 143,-40.2"/>
<text text-anchor="start" x="146" y="-46.3" font-family="Helvetica,sans-Serif" font-size="11.00" fill="#000000">&lt; 1</text>
<polygon fill="#ffffff" stroke="transparent" points="180,-40.2 180,-59.2 235,-59.2 235,-40.2 180,-40.2"/>
<polygon fill="none" stroke="#000000" points="180,-40.2 180,-59.2 235,-59.2 235,-40.2 180,-40.2"/>
<text text-anchor="start" x="199.6105" y="-46.3" font-family="Helvetica,sans-Serif" font-size="11.00" fill="#000000">3 rows</text>
<polygon fill="#ffffff" stroke="transparent" points="235,-40.2 235,-59.2 385,-59.2 385,-40.2 235,-40.2"/>
<polygon fill="none" stroke="#000000" points="235,-40.2 235,-59.2 385,-59.2 385,-40.2 235,-40.2"/>
<text text-anchor="start" x="366.4053" y="-46.3" font-family="Helvetica,sans-Serif" font-size="11.00" fill="#000000">0 &gt;</text>
<polygon fill="none" stroke="#000000" stroke-width="2" points="142,-39.2 142,-193.2 386,-193.2 386,-39.2 142,-39.2"/>
</a>
</g>
</g>
<!-- usuarios -->
<g id="node2" class="node">
<title>usuarios</title>
<g id="a_node2"><a xlink:href="../../tables/usuarios.html" xlink:title="usuarios" target="_top">
<polygon fill="#ffffff" stroke="transparent" points="8,-65.7 8,-170.7 92,-170.7 92,-65.7 8,-65.7"/>
<polygon fill="#f5f5f5" stroke="transparent" points="8,-147.2 8,-170.2 92,-170.2 92,-147.2 8,-147.2"/>
<polygon fill="none" stroke="#000000" points="8,-147.2 8,-170.2 92,-170.2 92,-147.2 8,-147.2"/>
<text text-anchor="start" x="12.7188" y="-156.3" font-family="Helvetica,sans-Serif" font-weight="bold" font-size="11.00" fill="#000000">usuarios</text>
<text text-anchor="start" x="57.5219" y="-155.3" font-family="Helvetica,sans-Serif" font-size="11.00" fill="#000000">[table]</text>
<polygon fill="none" stroke="#000000" points="8,-125.2 8,-147.2 92,-147.2 92,-125.2 8,-125.2"/>
<image xlink:href="../../images/primaryKeys.png" width="11px" height="12px" preserveAspectRatio="xMinYMin meet" x="13" y="-142.2"/>
<text text-anchor="start" x="32" y="-132.3" font-family="Helvetica,sans-Serif" font-size="11.00" fill="#000000">idusuario</text>
<polygon fill="#ffffff" stroke="transparent" points="8,-103.2 8,-125.2 92,-125.2 92,-103.2 8,-103.2"/>
<polygon fill="none" stroke="#000000" points="8,-103.2 8,-125.2 92,-125.2 92,-103.2 8,-103.2"/>
<text text-anchor="start" x="32" y="-110.3" font-family="Helvetica,sans-Serif" font-size="11.00" fill="#000000">username</text>
<polygon fill="none" stroke="#000000" points="8,-84.2 8,-103.2 92,-103.2 92,-84.2 8,-84.2"/>
<text text-anchor="start" x="11" y="-90.3" font-family="Helvetica,sans-Serif" font-size="11.00" fill="#000000">...</text>
<polygon fill="#ffffff" stroke="transparent" points="8,-65.2 8,-84.2 26,-84.2 26,-65.2 8,-65.2"/>
<polygon fill="none" stroke="#000000" points="8,-65.2 8,-84.2 26,-84.2 26,-65.2 8,-65.2"/>
<text text-anchor="start" x="11" y="-71.3" font-family="Helvetica,sans-Serif" font-size="11.00" fill="#000000"> &#160;</text>
<polygon fill="#ffffff" stroke="transparent" points="26,-65.2 26,-84.2 67,-84.2 67,-65.2 26,-65.2"/>
<polygon fill="none" stroke="#000000" points="26,-65.2 26,-84.2 67,-84.2 67,-65.2 26,-65.2"/>
<text text-anchor="start" x="31.6105" y="-71.3" font-family="Helvetica,sans-Serif" font-size="11.00" fill="#000000">9 rows</text>
<polygon fill="#ffffff" stroke="transparent" points="67,-65.2 67,-84.2 92,-84.2 92,-65.2 67,-65.2"/>
<polygon fill="none" stroke="#000000" points="67,-65.2 67,-84.2 92,-84.2 92,-65.2 67,-65.2"/>
<text text-anchor="start" x="73.4053" y="-71.3" font-family="Helvetica,sans-Serif" font-size="11.00" fill="#000000">4 &gt;</text>
</a>
</g>
</g>
<!-- pedidos&#45;&gt;usuarios -->
<g id="edge1" class="edge">
<title>pedidos:w&#45;&gt;usuarios:e</title>
<path fill="none" stroke="#000000" d="M128.276,-136.2C116.2815,-136.2 108.8229,-136.2 92,-136.2"/>
<polygon fill="#000000" stroke="#000000" points="135,-136.2001 143,-139.8 139,-136.2 143,-136.2 143,-136.2 143,-136.2 139,-136.2 143,-132.6 135,-136.2001 135,-136.2001"/>
<ellipse fill="none" stroke="#000000" cx="131.8" cy="-136.2001" rx="3.2" ry="3.2"/>
</g>
</g>
</svg>
