<?xml version="1.0" encoding="UTF-8" standalone="no"?>
<!DOCTYPE svg PUBLIC "-//W3C//DTD SVG 1.1//EN"
 "http://www.w3.org/Graphics/SVG/1.1/DTD/svg11.dtd">
<!-- Generated by graphviz version 2.40.1 (20161225.0304)
 -->
<!-- Title: twoDegreesRelationshipsDiagram Pages: 1 -->
<svg width="388pt" height="475pt"
 viewBox="0.00 0.00 388.00 475.20" xmlns="http://www.w3.org/2000/svg" xmlns:xlink="http://www.w3.org/1999/xlink">
<g id="graph0" class="graph" transform="scale(1 1) rotate(0) translate(4 471.2)">
<title>twoDegreesRelationshipsDiagram</title>
<polygon fill="#ffffff" stroke="transparent" points="-4,4 -4,-471.2 384,-471.2 384,4 -4,4"/>
<text text-anchor="middle" x="72.4936" y="-7.3" font-family="Helvetica,sans-Serif" font-size="11.00" fill="#000000">Generated by SchemaSpy</text>
<!-- anuncios -->
<g id="node1" class="node">
<title>anuncios</title>
<g id="a_node1"><a xlink:href="../../tables/anuncios.html" xlink:title="anuncios" target="_top">
<polygon fill="#ffffff" stroke="transparent" points="213,-402.2 213,-463.2 300,-463.2 300,-402.2 213,-402.2"/>
<polygon fill="#f5f5f5" stroke="transparent" points="213.5,-439.7 213.5,-462.7 300.5,-462.7 300.5,-439.7 213.5,-439.7"/>
<polygon fill="none" stroke="#000000" points="213.5,-439.7 213.5,-462.7 300.5,-462.7 300.5,-439.7 213.5,-439.7"/>
<text text-anchor="start" x="218.4923" y="-448.8" font-family="Helvetica,sans-Serif" font-weight="bold" font-size="11.00" fill="#000000">anuncios</text>
<text text-anchor="start" x="266.0219" y="-447.8" font-family="Helvetica,sans-Serif" font-size="11.00" fill="#000000">[table]</text>
<polygon fill="none" stroke="#000000" points="213.5,-420.7 213.5,-439.7 300.5,-439.7 300.5,-420.7 213.5,-420.7"/>
<text text-anchor="start" x="216.5" y="-426.8" font-family="Helvetica,sans-Serif" font-size="11.00" fill="#000000">...</text>
<polygon fill="#ffffff" stroke="transparent" points="213.5,-401.7 213.5,-420.7 245.5,-420.7 245.5,-401.7 213.5,-401.7"/>
<polygon fill="none" stroke="#000000" points="213.5,-401.7 213.5,-420.7 245.5,-420.7 245.5,-401.7 213.5,-401.7"/>
<text text-anchor="start" x="216.5" y="-407.8" font-family="Helvetica,sans-Serif" font-size="11.00" fill="#000000">&lt; 1</text>
<polygon fill="#ffffff" stroke="transparent" points="245.5,-401.7 245.5,-420.7 282.5,-420.7 282.5,-401.7 245.5,-401.7"/>
<polygon fill="none" stroke="#000000" points="245.5,-401.7 245.5,-420.7 282.5,-420.7 282.5,-401.7 245.5,-401.7"/>
<text text-anchor="start" x="252.6105" y="-407.8" font-family="Helvetica,sans-Serif" font-size="11.00" fill="#000000">1 row</text>
<polygon fill="#ffffff" stroke="transparent" points="282.5,-401.7 282.5,-420.7 300.5,-420.7 300.5,-401.7 282.5,-401.7"/>
<polygon fill="none" stroke="#000000" points="282.5,-401.7 282.5,-420.7 300.5,-420.7 300.5,-401.7 282.5,-401.7"/>
<text text-anchor="start" x="291.3862" y="-407.8" font-family="Helvetica,sans-Serif" font-size="11.00" fill="#000000"> &#160;</text>
</a>
</g>
</g>
<!-- usuarios -->
<g id="node2" class="node">
<title>usuarios</title>
<g id="a_node2"><a xlink:href="../../tables/usuarios.html" xlink:title="usuarios" target="_top">
<polygon fill="#ffffff" stroke="transparent" points="8,-164.2 8,-269.2 92,-269.2 92,-164.2 8,-164.2"/>
<polygon fill="#f5f5f5" stroke="transparent" points="8,-245.7 8,-268.7 92,-268.7 92,-245.7 8,-245.7"/>
<polygon fill="none" stroke="#000000" points="8,-245.7 8,-268.7 92,-268.7 92,-245.7 8,-245.7"/>
<text text-anchor="start" x="12.7188" y="-254.8" font-family="Helvetica,sans-Serif" font-weight="bold" font-size="11.00" fill="#000000">usuarios</text>
<text text-anchor="start" x="57.5219" y="-253.8" font-family="Helvetica,sans-Serif" font-size="11.00" fill="#000000">[table]</text>
<polygon fill="none" stroke="#000000" points="8,-223.7 8,-245.7 92,-245.7 92,-223.7 8,-223.7"/>
<image xlink:href="../../images/primaryKeys.png" width="11px" height="12px" preserveAspectRatio="xMinYMin meet" x="13" y="-240.7"/>
<text text-anchor="start" x="32" y="-230.8" font-family="Helvetica,sans-Serif" font-size="11.00" fill="#000000">idusuario</text>
<polygon fill="#ffffff" stroke="transparent" points="8,-201.7 8,-223.7 92,-223.7 92,-201.7 8,-201.7"/>
<polygon fill="none" stroke="#000000" points="8,-201.7 8,-223.7 92,-223.7 92,-201.7 8,-201.7"/>
<text text-anchor="start" x="32" y="-208.8" font-family="Helvetica,sans-Serif" font-size="11.00" fill="#000000">username</text>
<polygon fill="none" stroke="#000000" points="8,-182.7 8,-201.7 92,-201.7 92,-182.7 8,-182.7"/>
<text text-anchor="start" x="11" y="-188.8" font-family="Helvetica,sans-Serif" font-size="11.00" fill="#000000">...</text>
<polygon fill="#ffffff" stroke="transparent" points="8,-163.7 8,-182.7 26,-182.7 26,-163.7 8,-163.7"/>
<polygon fill="none" stroke="#000000" points="8,-163.7 8,-182.7 26,-182.7 26,-163.7 8,-163.7"/>
<text text-anchor="start" x="11" y="-169.8" font-family="Helvetica,sans-Serif" font-size="11.00" fill="#000000"> &#160;</text>
<polygon fill="#ffffff" stroke="transparent" points="26,-163.7 26,-182.7 67,-182.7 67,-163.7 26,-163.7"/>
<polygon fill="none" stroke="#000000" points="26,-163.7 26,-182.7 67,-182.7 67,-163.7 26,-163.7"/>
<text text-anchor="start" x="31.6105" y="-169.8" font-family="Helvetica,sans-Serif" font-size="11.00" fill="#000000">9 rows</text>
<polygon fill="#ffffff" stroke="transparent" points="67,-163.7 67,-182.7 92,-182.7 92,-163.7 67,-163.7"/>
<polygon fill="none" stroke="#000000" points="67,-163.7 67,-182.7 92,-182.7 92,-163.7 67,-163.7"/>
<text text-anchor="start" x="73.4053" y="-169.8" font-family="Helvetica,sans-Serif" font-size="11.00" fill="#000000">4 &gt;</text>
</a>
</g>
</g>
<!-- anuncios&#45;&gt;usuarios -->
<g id="edge1" class="edge">
<title>anuncios:w&#45;&gt;usuarios:e</title>
<path fill="none" stroke="#000000" d="M198.9221,-429.2644C169.6039,-427.2901 154.9077,-418.1039 133,-391.7 86.9498,-336.1989 164.1179,-234.7 92,-234.7"/>
<polygon fill="#000000" stroke="#000000" points="205.5036,-429.461 213.3925,-433.2984 209.5018,-429.5805 213.5,-429.7 213.5,-429.7 213.5,-429.7 209.5018,-429.5805 213.6075,-426.1016 205.5036,-429.461 205.5036,-429.461"/>
<ellipse fill="none" stroke="#000000" cx="202.305" cy="-429.3654" rx="3.2" ry="3.2"/>
</g>
<!-- colmados -->
<g id="node3" class="node">
<title>colmados</title>
<g id="a_node3"><a xlink:href="../../tables/colmados.html" xlink:title="colmados" target="_top">
<polygon fill="#ffffff" stroke="transparent" points="141,-202.7 141,-380.7 372,-380.7 372,-202.7 141,-202.7"/>
<polygon fill="#f5f5f5" stroke="transparent" points="143.5,-355.7 143.5,-378.7 370.5,-378.7 370.5,-355.7 143.5,-355.7"/>
<polygon fill="none" stroke="#000000" points="143.5,-355.7 143.5,-378.7 370.5,-378.7 370.5,-355.7 143.5,-355.7"/>
<text text-anchor="start" x="148.5" y="-364.8" font-family="Helvetica,sans-Serif" font-weight="bold" font-size="11.00" fill="#000000">colmados</text>
<text text-anchor="start" x="335.5437" y="-363.8" font-family="Helvetica,sans-Serif" font-size="11.00" fill="#000000">[table]</text>
<polygon fill="none" stroke="#000000" points="143.5,-333.7 143.5,-355.7 220.5,-355.7 220.5,-333.7 143.5,-333.7"/>
<image xlink:href="../../images/primaryKeys.png" width="11px" height="12px" preserveAspectRatio="xMinYMin meet" x="148.5" y="-350.7"/>
<text text-anchor="start" x="163.5" y="-340.8" font-family="Helvetica,sans-Serif" font-size="11.00" fill="#000000">idplanta</text>
<polygon fill="none" stroke="#000000" points="220.5,-333.7 220.5,-355.7 370.5,-355.7 370.5,-333.7 220.5,-333.7"/>
<text text-anchor="start" x="223.5" y="-341.4" font-family="Helvetica,sans-Serif" font-size="11.00" fill="#000000">integer[2000000000,10]</text>
<polygon fill="none" stroke="#000000" points="143.5,-311.7 143.5,-333.7 220.5,-333.7 220.5,-311.7 143.5,-311.7"/>
<image xlink:href="../../images/foreignKeys.png" width="11px" height="12px" preserveAspectRatio="xMinYMin meet" x="148.5" y="-328.7"/>
<text text-anchor="start" x="163.5" y="-318.8" font-family="Helvetica,sans-Serif" font-size="11.00" fill="#000000">idusuario</text>
<polygon fill="none" stroke="#000000" points="220.5,-311.7 220.5,-333.7 370.5,-333.7 370.5,-311.7 220.5,-311.7"/>
<text text-anchor="start" x="223.5" y="-319.4" font-family="Helvetica,sans-Serif" font-size="11.00" fill="#000000">integer[2000000000,10]</text>
<polygon fill="none" stroke="#000000" points="143.5,-289.7 143.5,-311.7 220.5,-311.7 220.5,-289.7 143.5,-289.7"/>
<text text-anchor="start" x="163.5" y="-296.8" font-family="Helvetica,sans-Serif" font-size="11.00" fill="#000000">nombre</text>
<polygon fill="none" stroke="#000000" points="220.5,-289.7 220.5,-311.7 370.5,-311.7 370.5,-289.7 220.5,-289.7"/>
<text text-anchor="start" x="223.0568" y="-297.4" font-family="Helvetica,sans-Serif" font-size="11.00" fill="#000000">varchar(255)[2000000000,10]</text>
<polygon fill="none" stroke="#000000" points="143.5,-267.7 143.5,-289.7 220.5,-289.7 220.5,-267.7 143.5,-267.7"/>
<text text-anchor="start" x="163.5" y="-274.8" font-family="Helvetica,sans-Serif" font-size="11.00" fill="#000000">rnc</text>
<polygon fill="none" stroke="#000000" points="220.5,-267.7 220.5,-289.7 370.5,-289.7 370.5,-267.7 220.5,-267.7"/>
<text text-anchor="start" x="223.5" y="-275.4" font-family="Helvetica,sans-Serif" font-size="11.00" fill="#000000">varchar(9)[2000000000,10]</text>
<polygon fill="none" stroke="#000000" points="143.5,-245.7 143.5,-267.7 220.5,-267.7 220.5,-245.7 143.5,-245.7"/>
<text text-anchor="start" x="163.5" y="-252.8" font-family="Helvetica,sans-Serif" font-size="11.00" fill="#000000">ubicacion</text>
<polygon fill="none" stroke="#000000" points="220.5,-245.7 220.5,-267.7 370.5,-267.7 370.5,-245.7 220.5,-245.7"/>
<text text-anchor="start" x="223.0568" y="-253.4" font-family="Helvetica,sans-Serif" font-size="11.00" fill="#000000">varchar(255)[2000000000,10]</text>
<polygon fill="none" stroke="#000000" points="143.5,-223.7 143.5,-245.7 220.5,-245.7 220.5,-223.7 143.5,-223.7"/>
<text text-anchor="start" x="163.5" y="-230.8" font-family="Helvetica,sans-Serif" font-size="11.00" fill="#000000">owner</text>
<polygon fill="none" stroke="#000000" points="220.5,-223.7 220.5,-245.7 370.5,-245.7 370.5,-223.7 220.5,-223.7"/>
<text text-anchor="start" x="223.5" y="-231.4" font-family="Helvetica,sans-Serif" font-size="11.00" fill="#000000">varchar(50)[2000000000,10]</text>
<polygon fill="#ffffff" stroke="transparent" points="143.5,-204.7 143.5,-223.7 173.5,-223.7 173.5,-204.7 143.5,-204.7"/>
<polygon fill="none" stroke="#000000" points="143.5,-204.7 143.5,-223.7 173.5,-223.7 173.5,-204.7 143.5,-204.7"/>
<text text-anchor="start" x="146.5" y="-210.8" font-family="Helvetica,sans-Serif" font-size="11.00" fill="#000000">&lt; 1</text>
<polygon fill="#ffffff" stroke="transparent" points="173.5,-204.7 173.5,-223.7 220.5,-223.7 220.5,-204.7 173.5,-204.7"/>
<polygon fill="none" stroke="#000000" points="173.5,-204.7 173.5,-223.7 220.5,-223.7 220.5,-204.7 173.5,-204.7"/>
<text text-anchor="start" x="185.1105" y="-210.8" font-family="Helvetica,sans-Serif" font-size="11.00" fill="#000000">0 rows</text>
<polygon fill="#ffffff" stroke="transparent" points="220.5,-204.7 220.5,-223.7 370.5,-223.7 370.5,-204.7 220.5,-204.7"/>
<polygon fill="none" stroke="#000000" points="220.5,-204.7 220.5,-223.7 370.5,-223.7 370.5,-204.7 220.5,-204.7"/>
<text text-anchor="start" x="351.9053" y="-210.8" font-family="Helvetica,sans-Serif" font-size="11.00" fill="#000000">0 &gt;</text>
<polygon fill="none" stroke="#000000" stroke-width="2" points="142,-203.7 142,-379.7 371,-379.7 371,-203.7 142,-203.7"/>
</a>
</g>
</g>
<!-- colmados&#45;&gt;usuarios -->
<g id="edge2" class="edge">
<title>colmados:w&#45;&gt;usuarios:e</title>
<path fill="none" stroke="#000000" d="M129.5174,-318.4556C107.0886,-300.8772 131.2979,-234.7 92,-234.7"/>
<polygon fill="#000000" stroke="#000000" points="135.8449,-320.3763 142.4543,-326.1448 139.6725,-321.5381 143.5,-322.7 143.5,-322.7 143.5,-322.7 139.6725,-321.5381 144.5457,-319.2552 135.8449,-320.3763 135.8449,-320.3763"/>
<ellipse fill="none" stroke="#000000" cx="132.7829" cy="-319.4468" rx="3.2" ry="3.2"/>
</g>
<!-- pedidos -->
<g id="node4" class="node">
<title>pedidos</title>
<g id="a_node4"><a xlink:href="../../tables/pedidos.html" xlink:title="pedidos" target="_top">
<polygon fill="#ffffff" stroke="transparent" points="216,-120.2 216,-181.2 297,-181.2 297,-120.2 216,-120.2"/>
<polygon fill="#f5f5f5" stroke="transparent" points="216.5,-157.7 216.5,-180.7 297.5,-180.7 297.5,-157.7 216.5,-157.7"/>
<polygon fill="none" stroke="#000000" points="216.5,-157.7 216.5,-180.7 297.5,-180.7 297.5,-157.7 216.5,-157.7"/>
<text text-anchor="start" x="221.2423" y="-166.8" font-family="Helvetica,sans-Serif" font-weight="bold" font-size="11.00" fill="#000000">pedidos</text>
<text text-anchor="start" x="263.0219" y="-165.8" font-family="Helvetica,sans-Serif" font-size="11.00" fill="#000000">[table]</text>
<polygon fill="none" stroke="#000000" points="216.5,-138.7 216.5,-157.7 297.5,-157.7 297.5,-138.7 216.5,-138.7"/>
<text text-anchor="start" x="219.5" y="-144.8" font-family="Helvetica,sans-Serif" font-size="11.00" fill="#000000">...</text>
<polygon fill="#ffffff" stroke="transparent" points="216.5,-119.7 216.5,-138.7 242.5,-138.7 242.5,-119.7 216.5,-119.7"/>
<polygon fill="none" stroke="#000000" points="216.5,-119.7 216.5,-138.7 242.5,-138.7 242.5,-119.7 216.5,-119.7"/>
<text text-anchor="start" x="219.5" y="-125.8" font-family="Helvetica,sans-Serif" font-size="11.00" fill="#000000">&lt; 1</text>
<polygon fill="#ffffff" stroke="transparent" points="242.5,-119.7 242.5,-138.7 282.5,-138.7 282.5,-119.7 242.5,-119.7"/>
<polygon fill="none" stroke="#000000" points="242.5,-119.7 242.5,-138.7 282.5,-138.7 282.5,-119.7 242.5,-119.7"/>
<text text-anchor="start" x="247.1105" y="-125.8" font-family="Helvetica,sans-Serif" font-size="11.00" fill="#000000">3 rows</text>
<polygon fill="#ffffff" stroke="transparent" points="282.5,-119.7 282.5,-138.7 297.5,-138.7 297.5,-119.7 282.5,-119.7"/>
<polygon fill="none" stroke="#000000" points="282.5,-119.7 282.5,-138.7 297.5,-138.7 297.5,-119.7 282.5,-119.7"/>
<text text-anchor="start" x="288.3862" y="-125.8" font-family="Helvetica,sans-Serif" font-size="11.00" fill="#000000"> &#160;</text>
</a>
</g>
</g>
<!-- pedidos&#45;&gt;usuarios -->
<g id="edge3" class="edge">
<title>pedidos:w&#45;&gt;usuarios:e</title>
<path fill="none" stroke="#000000" d="M201.7863,-148.6486C171.9317,-152.8553 162.326,-170.5967 133,-192.7 112.1681,-208.4012 118.0863,-234.7 92,-234.7"/>
<polygon fill="#000000" stroke="#000000" points="208.5166,-148.2148 216.7316,-151.2925 212.5083,-147.9574 216.5,-147.7 216.5,-147.7 216.5,-147.7 212.5083,-147.9574 216.2684,-144.1075 208.5166,-148.2148 208.5166,-148.2148"/>
<ellipse fill="none" stroke="#000000" cx="205.3232" cy="-148.4207" rx="3.2" ry="3.2"/>
</g>
<!-- plantas -->
<g id="node5" class="node">
<title>plantas</title>
<g id="a_node5"><a xlink:href="../../tables/plantas.html" xlink:title="plantas" target="_top">
<polygon fill="#ffffff" stroke="transparent" points="217.5,-38.2 217.5,-99.2 295.5,-99.2 295.5,-38.2 217.5,-38.2"/>
<polygon fill="#f5f5f5" stroke="transparent" points="217.5,-75.7 217.5,-98.7 295.5,-98.7 295.5,-75.7 217.5,-75.7"/>
<polygon fill="none" stroke="#000000" points="217.5,-75.7 217.5,-98.7 295.5,-98.7 295.5,-75.7 217.5,-75.7"/>
<text text-anchor="start" x="222.2713" y="-84.8" font-family="Helvetica,sans-Serif" font-weight="bold" font-size="11.00" fill="#000000">plantas</text>
<text text-anchor="start" x="261.0219" y="-83.8" font-family="Helvetica,sans-Serif" font-size="11.00" fill="#000000">[table]</text>
<polygon fill="none" stroke="#000000" points="217.5,-56.7 217.5,-75.7 295.5,-75.7 295.5,-56.7 217.5,-56.7"/>
<text text-anchor="start" x="220.5" y="-62.8" font-family="Helvetica,sans-Serif" font-size="11.00" fill="#000000">...</text>
<polygon fill="#ffffff" stroke="transparent" points="217.5,-37.7 217.5,-56.7 241.5,-56.7 241.5,-37.7 217.5,-37.7"/>
<polygon fill="none" stroke="#000000" points="217.5,-37.7 217.5,-56.7 241.5,-56.7 241.5,-37.7 217.5,-37.7"/>
<text text-anchor="start" x="220.5" y="-43.8" font-family="Helvetica,sans-Serif" font-size="11.00" fill="#000000">&lt; 1</text>
<polygon fill="#ffffff" stroke="transparent" points="241.5,-37.7 241.5,-56.7 281.5,-56.7 281.5,-37.7 241.5,-37.7"/>
<polygon fill="none" stroke="#000000" points="241.5,-37.7 241.5,-56.7 281.5,-56.7 281.5,-37.7 241.5,-37.7"/>
<text text-anchor="start" x="246.1105" y="-43.8" font-family="Helvetica,sans-Serif" font-size="11.00" fill="#000000">0 rows</text>
<polygon fill="#ffffff" stroke="transparent" points="281.5,-37.7 281.5,-56.7 295.5,-56.7 295.5,-37.7 281.5,-37.7"/>
<polygon fill="none" stroke="#000000" points="281.5,-37.7 281.5,-56.7 295.5,-56.7 295.5,-37.7 281.5,-37.7"/>
<text text-anchor="start" x="286.3862" y="-43.8" font-family="Helvetica,sans-Serif" font-size="11.00" fill="#000000"> &#160;</text>
</a>
</g>
</g>
<!-- plantas&#45;&gt;usuarios -->
<g id="edge4" class="edge">
<title>plantas:w&#45;&gt;usuarios:e</title>
<path fill="none" stroke="#000000" d="M202.8363,-66.2666C171.2713,-68.9512 156.9761,-81.4548 133,-109.7 95.1631,-154.2739 150.4677,-234.7 92,-234.7"/>
<polygon fill="#000000" stroke="#000000" points="209.506,-66.009 217.639,-69.2973 213.503,-65.8545 217.5,-65.7 217.5,-65.7 217.5,-65.7 213.503,-65.8545 217.361,-62.1027 209.506,-66.009 209.506,-66.009"/>
<ellipse fill="none" stroke="#000000" cx="206.3084" cy="-66.1325" rx="3.2" ry="3.2"/>
</g>
</g>
</svg>
