<?xml version="1.0" encoding="UTF-8" standalone="no"?>
<!DOCTYPE svg PUBLIC "-//W3C//DTD SVG 1.1//EN"
 "http://www.w3.org/Graphics/SVG/1.1/DTD/svg11.dtd">
<!-- Generated by graphviz version 2.40.1 (20161225.0304)
 -->
<!-- Title: twoDegreesRelationshipsDiagram Pages: 1 -->
<svg width="403pt" height="453pt"
 viewBox="0.00 0.00 403.00 453.20" xmlns="http://www.w3.org/2000/svg" xmlns:xlink="http://www.w3.org/1999/xlink">
<g id="graph0" class="graph" transform="scale(1 1) rotate(0) translate(4 449.2)">
<title>twoDegreesRelationshipsDiagram</title>
<polygon fill="#ffffff" stroke="transparent" points="-4,4 -4,-449.2 399,-449.2 399,4 -4,4"/>
<text text-anchor="middle" x="72.4936" y="-7.3" font-family="Helvetica,sans-Serif" font-size="11.00" fill="#000000">Generated by SchemaSpy</text>
<!-- anuncios -->
<g id="node1" class="node">
<title>anuncios</title>
<g id="a_node1"><a xlink:href="../../tables/anuncios.html" xlink:title="anuncios" target="_top">
<polygon fill="#ffffff" stroke="transparent" points="220.5,-380.2 220.5,-441.2 307.5,-441.2 307.5,-380.2 220.5,-380.2"/>
<polygon fill="#f5f5f5" stroke="transparent" points="221,-417.7 221,-440.7 308,-440.7 308,-417.7 221,-417.7"/>
<polygon fill="none" stroke="#000000" points="221,-417.7 221,-440.7 308,-440.7 308,-417.7 221,-417.7"/>
<text text-anchor="start" x="225.9923" y="-426.8" font-family="Helvetica,sans-Serif" font-weight="bold" font-size="11.00" fill="#000000">anuncios</text>
<text text-anchor="start" x="273.5219" y="-425.8" font-family="Helvetica,sans-Serif" font-size="11.00" fill="#000000">[table]</text>
<polygon fill="none" stroke="#000000" points="221,-398.7 221,-417.7 308,-417.7 308,-398.7 221,-398.7"/>
<text text-anchor="start" x="224" y="-404.8" font-family="Helvetica,sans-Serif" font-size="11.00" fill="#000000">...</text>
<polygon fill="#ffffff" stroke="transparent" points="221,-379.7 221,-398.7 253,-398.7 253,-379.7 221,-379.7"/>
<polygon fill="none" stroke="#000000" points="221,-379.7 221,-398.7 253,-398.7 253,-379.7 221,-379.7"/>
<text text-anchor="start" x="224" y="-385.8" font-family="Helvetica,sans-Serif" font-size="11.00" fill="#000000">&lt; 1</text>
<polygon fill="#ffffff" stroke="transparent" points="253,-379.7 253,-398.7 290,-398.7 290,-379.7 253,-379.7"/>
<polygon fill="none" stroke="#000000" points="253,-379.7 253,-398.7 290,-398.7 290,-379.7 253,-379.7"/>
<text text-anchor="start" x="260.1105" y="-385.8" font-family="Helvetica,sans-Serif" font-size="11.00" fill="#000000">1 row</text>
<polygon fill="#ffffff" stroke="transparent" points="290,-379.7 290,-398.7 308,-398.7 308,-379.7 290,-379.7"/>
<polygon fill="none" stroke="#000000" points="290,-379.7 290,-398.7 308,-398.7 308,-379.7 290,-379.7"/>
<text text-anchor="start" x="298.8862" y="-385.8" font-family="Helvetica,sans-Serif" font-size="11.00" fill="#000000"> &#160;</text>
</a>
</g>
</g>
<!-- usuarios -->
<g id="node2" class="node">
<title>usuarios</title>
<g id="a_node2"><a xlink:href="../../tables/usuarios.html" xlink:title="usuarios" target="_top">
<polygon fill="#ffffff" stroke="transparent" points="8,-201.2 8,-306.2 92,-306.2 92,-201.2 8,-201.2"/>
<polygon fill="#f5f5f5" stroke="transparent" points="8,-282.7 8,-305.7 92,-305.7 92,-282.7 8,-282.7"/>
<polygon fill="none" stroke="#000000" points="8,-282.7 8,-305.7 92,-305.7 92,-282.7 8,-282.7"/>
<text text-anchor="start" x="12.7188" y="-291.8" font-family="Helvetica,sans-Serif" font-weight="bold" font-size="11.00" fill="#000000">usuarios</text>
<text text-anchor="start" x="57.5219" y="-290.8" font-family="Helvetica,sans-Serif" font-size="11.00" fill="#000000">[table]</text>
<polygon fill="none" stroke="#000000" points="8,-260.7 8,-282.7 92,-282.7 92,-260.7 8,-260.7"/>
<image xlink:href="../../images/primaryKeys.png" width="11px" height="12px" preserveAspectRatio="xMinYMin meet" x="13" y="-277.7"/>
<text text-anchor="start" x="32" y="-267.8" font-family="Helvetica,sans-Serif" font-size="11.00" fill="#000000">idusuario</text>
<polygon fill="#ffffff" stroke="transparent" points="8,-238.7 8,-260.7 92,-260.7 92,-238.7 8,-238.7"/>
<polygon fill="none" stroke="#000000" points="8,-238.7 8,-260.7 92,-260.7 92,-238.7 8,-238.7"/>
<text text-anchor="start" x="32" y="-245.8" font-family="Helvetica,sans-Serif" font-size="11.00" fill="#000000">username</text>
<polygon fill="none" stroke="#000000" points="8,-219.7 8,-238.7 92,-238.7 92,-219.7 8,-219.7"/>
<text text-anchor="start" x="11" y="-225.8" font-family="Helvetica,sans-Serif" font-size="11.00" fill="#000000">...</text>
<polygon fill="#ffffff" stroke="transparent" points="8,-200.7 8,-219.7 26,-219.7 26,-200.7 8,-200.7"/>
<polygon fill="none" stroke="#000000" points="8,-200.7 8,-219.7 26,-219.7 26,-200.7 8,-200.7"/>
<text text-anchor="start" x="11" y="-206.8" font-family="Helvetica,sans-Serif" font-size="11.00" fill="#000000"> &#160;</text>
<polygon fill="#ffffff" stroke="transparent" points="26,-200.7 26,-219.7 67,-219.7 67,-200.7 26,-200.7"/>
<polygon fill="none" stroke="#000000" points="26,-200.7 26,-219.7 67,-219.7 67,-200.7 26,-200.7"/>
<text text-anchor="start" x="31.6105" y="-206.8" font-family="Helvetica,sans-Serif" font-size="11.00" fill="#000000">9 rows</text>
<polygon fill="#ffffff" stroke="transparent" points="67,-200.7 67,-219.7 92,-219.7 92,-200.7 67,-200.7"/>
<polygon fill="none" stroke="#000000" points="67,-200.7 67,-219.7 92,-219.7 92,-200.7 67,-200.7"/>
<text text-anchor="start" x="73.4053" y="-206.8" font-family="Helvetica,sans-Serif" font-size="11.00" fill="#000000">4 &gt;</text>
</a>
</g>
</g>
<!-- anuncios&#45;&gt;usuarios -->
<g id="edge1" class="edge">
<title>anuncios:w&#45;&gt;usuarios:e</title>
<path fill="none" stroke="#000000" d="M206.2159,-407.3098C174.31,-405.4208 159.208,-396.2082 133,-369.7 99.8056,-336.1252 139.2137,-271.7 92,-271.7"/>
<polygon fill="#000000" stroke="#000000" points="213.0028,-407.4889 220.905,-411.2987 217.0014,-407.5944 221,-407.7 221,-407.7 221,-407.7 217.0014,-407.5944 221.095,-404.1013 213.0028,-407.4889 213.0028,-407.4889"/>
<ellipse fill="none" stroke="#000000" cx="209.8039" cy="-407.4044" rx="3.2" ry="3.2"/>
</g>
<!-- colmados -->
<g id="node3" class="node">
<title>colmados</title>
<g id="a_node3"><a xlink:href="../../tables/colmados.html" xlink:title="colmados" target="_top">
<polygon fill="#ffffff" stroke="transparent" points="219,-298.2 219,-359.2 309,-359.2 309,-298.2 219,-298.2"/>
<polygon fill="#f5f5f5" stroke="transparent" points="219,-335.7 219,-358.7 309,-358.7 309,-335.7 219,-335.7"/>
<polygon fill="none" stroke="#000000" points="219,-335.7 219,-358.7 309,-358.7 309,-335.7 219,-335.7"/>
<text text-anchor="start" x="223.9688" y="-344.8" font-family="Helvetica,sans-Serif" font-weight="bold" font-size="11.00" fill="#000000">colmados</text>
<text text-anchor="start" x="274.5219" y="-343.8" font-family="Helvetica,sans-Serif" font-size="11.00" fill="#000000">[table]</text>
<polygon fill="none" stroke="#000000" points="219,-316.7 219,-335.7 309,-335.7 309,-316.7 219,-316.7"/>
<text text-anchor="start" x="222" y="-322.8" font-family="Helvetica,sans-Serif" font-size="11.00" fill="#000000">...</text>
<polygon fill="#ffffff" stroke="transparent" points="219,-297.7 219,-316.7 249,-316.7 249,-297.7 219,-297.7"/>
<polygon fill="none" stroke="#000000" points="219,-297.7 219,-316.7 249,-316.7 249,-297.7 219,-297.7"/>
<text text-anchor="start" x="222" y="-303.8" font-family="Helvetica,sans-Serif" font-size="11.00" fill="#000000">&lt; 1</text>
<polygon fill="#ffffff" stroke="transparent" points="249,-297.7 249,-316.7 292,-316.7 292,-297.7 249,-297.7"/>
<polygon fill="none" stroke="#000000" points="249,-297.7 249,-316.7 292,-316.7 292,-297.7 249,-297.7"/>
<text text-anchor="start" x="256.6105" y="-303.8" font-family="Helvetica,sans-Serif" font-size="11.00" fill="#000000">0 rows</text>
<polygon fill="#ffffff" stroke="transparent" points="292,-297.7 292,-316.7 309,-316.7 309,-297.7 292,-297.7"/>
<polygon fill="none" stroke="#000000" points="292,-297.7 292,-316.7 309,-316.7 309,-297.7 292,-297.7"/>
<text text-anchor="start" x="299.8862" y="-303.8" font-family="Helvetica,sans-Serif" font-size="11.00" fill="#000000"> &#160;</text>
</a>
</g>
</g>
<!-- colmados&#45;&gt;usuarios -->
<g id="edge2" class="edge">
<title>colmados:w&#45;&gt;usuarios:e</title>
<path fill="none" stroke="#000000" d="M204.7377,-321.4627C172.9447,-308.7327 104.6983,-271.7 92,-271.7"/>
<polygon fill="#000000" stroke="#000000" points="211.3313,-323.4216 217.9747,-329.1509 215.1656,-324.5608 219,-325.7 219,-325.7 219,-325.7 215.1656,-324.5608 220.0253,-322.2491 211.3313,-323.4216 211.3313,-323.4216"/>
<ellipse fill="none" stroke="#000000" cx="208.2638" cy="-322.5103" rx="3.2" ry="3.2"/>
</g>
<!-- pedidos -->
<g id="node4" class="node">
<title>pedidos</title>
<g id="a_node4"><a xlink:href="../../tables/pedidos.html" xlink:title="pedidos" target="_top">
<polygon fill="#ffffff" stroke="transparent" points="141,-120.7 141,-276.7 387,-276.7 387,-120.7 141,-120.7"/>
<polygon fill="#f5f5f5" stroke="transparent" points="143,-251.7 143,-274.7 385,-274.7 385,-251.7 143,-251.7"/>
<polygon fill="none" stroke="#000000" points="143,-251.7 143,-274.7 385,-274.7 385,-251.7 143,-251.7"/>
<text text-anchor="start" x="148" y="-260.8" font-family="Helvetica,sans-Serif" font-weight="bold" font-size="11.00" fill="#000000">pedidos</text>
<text text-anchor="start" x="350.0437" y="-259.8" font-family="Helvetica,sans-Serif" font-size="11.00" fill="#000000">[table]</text>
<polygon fill="none" stroke="#000000" points="143,-229.7 143,-251.7 235,-251.7 235,-229.7 143,-229.7"/>
<image xlink:href="../../images/primaryKeys.png" width="11px" height="12px" preserveAspectRatio="xMinYMin meet" x="148" y="-246.7"/>
<text text-anchor="start" x="163" y="-236.8" font-family="Helvetica,sans-Serif" font-size="11.00" fill="#000000">idpedido</text>
<polygon fill="none" stroke="#000000" points="235,-229.7 235,-251.7 385,-251.7 385,-229.7 235,-229.7"/>
<text text-anchor="start" x="238" y="-237.4" font-family="Helvetica,sans-Serif" font-size="11.00" fill="#000000">integer[2000000000,10]</text>
<polygon fill="none" stroke="#000000" points="143,-207.7 143,-229.7 235,-229.7 235,-207.7 143,-207.7"/>
<image xlink:href="../../images/foreignKeys.png" width="11px" height="12px" preserveAspectRatio="xMinYMin meet" x="148" y="-224.7"/>
<text text-anchor="start" x="163" y="-214.8" font-family="Helvetica,sans-Serif" font-size="11.00" fill="#000000">idusuario</text>
<polygon fill="none" stroke="#000000" points="235,-207.7 235,-229.7 385,-229.7 385,-207.7 235,-207.7"/>
<text text-anchor="start" x="238" y="-215.4" font-family="Helvetica,sans-Serif" font-size="11.00" fill="#000000">integer[2000000000,10]</text>
<polygon fill="none" stroke="#000000" points="143,-185.7 143,-207.7 235,-207.7 235,-185.7 143,-185.7"/>
<text text-anchor="start" x="163" y="-192.8" font-family="Helvetica,sans-Serif" font-size="11.00" fill="#000000">cantidad</text>
<polygon fill="none" stroke="#000000" points="235,-185.7 235,-207.7 385,-207.7 385,-185.7 235,-185.7"/>
<text text-anchor="start" x="238" y="-193.4" font-family="Helvetica,sans-Serif" font-size="11.00" fill="#000000">integer[2000000000,10]</text>
<polygon fill="none" stroke="#000000" points="143,-163.7 143,-185.7 235,-185.7 235,-163.7 143,-163.7"/>
<text text-anchor="start" x="163" y="-170.8" font-family="Helvetica,sans-Serif" font-size="11.00" fill="#000000">ubicacion</text>
<polygon fill="none" stroke="#000000" points="235,-163.7 235,-185.7 385,-185.7 385,-163.7 235,-163.7"/>
<text text-anchor="start" x="237.5568" y="-171.4" font-family="Helvetica,sans-Serif" font-size="11.00" fill="#000000">varchar(255)[2000000000,10]</text>
<polygon fill="none" stroke="#000000" points="143,-141.7 143,-163.7 235,-163.7 235,-141.7 143,-141.7"/>
<text text-anchor="start" x="163" y="-148.8" font-family="Helvetica,sans-Serif" font-size="11.00" fill="#000000">water_brand</text>
<polygon fill="none" stroke="#000000" points="235,-141.7 235,-163.7 385,-163.7 385,-141.7 235,-141.7"/>
<text text-anchor="start" x="237.5568" y="-149.4" font-family="Helvetica,sans-Serif" font-size="11.00" fill="#000000">varchar(255)[2000000000,10]</text>
<polygon fill="#ffffff" stroke="transparent" points="143,-122.7 143,-141.7 180,-141.7 180,-122.7 143,-122.7"/>
<polygon fill="none" stroke="#000000" points="143,-122.7 143,-141.7 180,-141.7 180,-122.7 143,-122.7"/>
<text text-anchor="start" x="146" y="-128.8" font-family="Helvetica,sans-Serif" font-size="11.00" fill="#000000">&lt; 1</text>
<polygon fill="#ffffff" stroke="transparent" points="180,-122.7 180,-141.7 235,-141.7 235,-122.7 180,-122.7"/>
<polygon fill="none" stroke="#000000" points="180,-122.7 180,-141.7 235,-141.7 235,-122.7 180,-122.7"/>
<text text-anchor="start" x="199.6105" y="-128.8" font-family="Helvetica,sans-Serif" font-size="11.00" fill="#000000">3 rows</text>
<polygon fill="#ffffff" stroke="transparent" points="235,-122.7 235,-141.7 385,-141.7 385,-122.7 235,-122.7"/>
<polygon fill="none" stroke="#000000" points="235,-122.7 235,-141.7 385,-141.7 385,-122.7 235,-122.7"/>
<text text-anchor="start" x="366.4053" y="-128.8" font-family="Helvetica,sans-Serif" font-size="11.00" fill="#000000">0 &gt;</text>
<polygon fill="none" stroke="#000000" stroke-width="2" points="142,-121.7 142,-275.7 386,-275.7 386,-121.7 142,-121.7"/>
</a>
</g>
</g>
<!-- pedidos&#45;&gt;usuarios -->
<g id="edge3" class="edge">
<title>pedidos:w&#45;&gt;usuarios:e</title>
<path fill="none" stroke="#000000" d="M128.9557,-223.5911C114.0477,-236.7117 118.5607,-271.7 92,-271.7"/>
<polygon fill="#000000" stroke="#000000" points="135.445,-221.3311 144.184,-222.0997 139.2225,-220.0156 143,-218.7 143,-218.7 143,-218.7 139.2225,-220.0156 141.816,-215.3003 135.445,-221.3311 135.445,-221.3311"/>
<ellipse fill="none" stroke="#000000" cx="132.4231" cy="-222.3836" rx="3.2" ry="3.2"/>
</g>
<!-- plantas -->
<g id="node5" class="node">
<title>plantas</title>
<g id="a_node5"><a xlink:href="../../tables/plantas.html" xlink:title="plantas" target="_top">
<polygon fill="#ffffff" stroke="transparent" points="225,-38.2 225,-99.2 303,-99.2 303,-38.2 225,-38.2"/>
<polygon fill="#f5f5f5" stroke="transparent" points="225,-75.7 225,-98.7 303,-98.7 303,-75.7 225,-75.7"/>
<polygon fill="none" stroke="#000000" points="225,-75.7 225,-98.7 303,-98.7 303,-75.7 225,-75.7"/>
<text text-anchor="start" x="229.7713" y="-84.8" font-family="Helvetica,sans-Serif" font-weight="bold" font-size="11.00" fill="#000000">plantas</text>
<text text-anchor="start" x="268.5219" y="-83.8" font-family="Helvetica,sans-Serif" font-size="11.00" fill="#000000">[table]</text>
<polygon fill="none" stroke="#000000" points="225,-56.7 225,-75.7 303,-75.7 303,-56.7 225,-56.7"/>
<text text-anchor="start" x="228" y="-62.8" font-family="Helvetica,sans-Serif" font-size="11.00" fill="#000000">...</text>
<polygon fill="#ffffff" stroke="transparent" points="225,-37.7 225,-56.7 249,-56.7 249,-37.7 225,-37.7"/>
<polygon fill="none" stroke="#000000" points="225,-37.7 225,-56.7 249,-56.7 249,-37.7 225,-37.7"/>
<text text-anchor="start" x="228" y="-43.8" font-family="Helvetica,sans-Serif" font-size="11.00" fill="#000000">&lt; 1</text>
<polygon fill="#ffffff" stroke="transparent" points="249,-37.7 249,-56.7 289,-56.7 289,-37.7 249,-37.7"/>
<polygon fill="none" stroke="#000000" points="249,-37.7 249,-56.7 289,-56.7 289,-37.7 249,-37.7"/>
<text text-anchor="start" x="253.6105" y="-43.8" font-family="Helvetica,sans-Serif" font-size="11.00" fill="#000000">0 rows</text>
<polygon fill="#ffffff" stroke="transparent" points="289,-37.7 289,-56.7 303,-56.7 303,-37.7 289,-37.7"/>
<polygon fill="none" stroke="#000000" points="289,-37.7 289,-56.7 303,-56.7 303,-37.7 289,-37.7"/>
<text text-anchor="start" x="293.8862" y="-43.8" font-family="Helvetica,sans-Serif" font-size="11.00" fill="#000000"> &#160;</text>
</a>
</g>
</g>
<!-- plantas&#45;&gt;usuarios -->
<g id="edge4" class="edge">
<title>plantas:w&#45;&gt;usuarios:e</title>
<path fill="none" stroke="#000000" d="M210.543,-66.0959C175.3159,-68.2224 158.4614,-79.3824 133,-110.7 86.4201,-167.9936 165.8393,-271.7 92,-271.7"/>
<polygon fill="#000000" stroke="#000000" points="217.003,-65.9191 225.0986,-69.2987 221.0015,-65.8095 225,-65.7 225,-65.7 225,-65.7 221.0015,-65.8095 224.9014,-62.1013 217.003,-65.9191 217.003,-65.9191"/>
<ellipse fill="none" stroke="#000000" cx="213.8042" cy="-66.0067" rx="3.2" ry="3.2"/>
</g>
</g>
</svg>
