<?xml version="1.0" encoding="UTF-8" standalone="no"?>
<!DOCTYPE svg PUBLIC "-//W3C//DTD SVG 1.1//EN"
 "http://www.w3.org/Graphics/SVG/1.1/DTD/svg11.dtd">
<!-- Generated by graphviz version 2.40.1 (20161225.0304)
 -->
<!-- Title: twoDegreesRelationshipsDiagram Pages: 1 -->
<svg width="388pt" height="475pt"
 viewBox="0.00 0.00 388.00 474.70" xmlns="http://www.w3.org/2000/svg" xmlns:xlink="http://www.w3.org/1999/xlink">
<g id="graph0" class="graph" transform="scale(1 1) rotate(0) translate(4 470.7)">
<title>twoDegreesRelationshipsDiagram</title>
<polygon fill="#ffffff" stroke="transparent" points="-4,4 -4,-470.7 384,-470.7 384,4 -4,4"/>
<text text-anchor="middle" x="72.4936" y="-7.3" font-family="Helvetica,sans-Serif" font-size="11.00" fill="#000000">Generated by SchemaSpy</text>
<!-- anuncios -->
<g id="node1" class="node">
<title>anuncios</title>
<g id="a_node1"><a xlink:href="../../tables/anuncios.html" xlink:title="anuncios" target="_top">
<polygon fill="#ffffff" stroke="transparent" points="213,-401.7 213,-462.7 300,-462.7 300,-401.7 213,-401.7"/>
<polygon fill="#f5f5f5" stroke="transparent" points="213.5,-439.2 213.5,-462.2 300.5,-462.2 300.5,-439.2 213.5,-439.2"/>
<polygon fill="none" stroke="#000000" points="213.5,-439.2 213.5,-462.2 300.5,-462.2 300.5,-439.2 213.5,-439.2"/>
<text text-anchor="start" x="218.4923" y="-448.3" font-family="Helvetica,sans-Serif" font-weight="bold" font-size="11.00" fill="#000000">anuncios</text>
<text text-anchor="start" x="266.0219" y="-447.3" font-family="Helvetica,sans-Serif" font-size="11.00" fill="#000000">[table]</text>
<polygon fill="none" stroke="#000000" points="213.5,-420.2 213.5,-439.2 300.5,-439.2 300.5,-420.2 213.5,-420.2"/>
<text text-anchor="start" x="216.5" y="-426.3" font-family="Helvetica,sans-Serif" font-size="11.00" fill="#000000">...</text>
<polygon fill="#ffffff" stroke="transparent" points="213.5,-401.2 213.5,-420.2 245.5,-420.2 245.5,-401.2 213.5,-401.2"/>
<polygon fill="none" stroke="#000000" points="213.5,-401.2 213.5,-420.2 245.5,-420.2 245.5,-401.2 213.5,-401.2"/>
<text text-anchor="start" x="216.5" y="-407.3" font-family="Helvetica,sans-Serif" font-size="11.00" fill="#000000">&lt; 1</text>
<polygon fill="#ffffff" stroke="transparent" points="245.5,-401.2 245.5,-420.2 282.5,-420.2 282.5,-401.2 245.5,-401.2"/>
<polygon fill="none" stroke="#000000" points="245.5,-401.2 245.5,-420.2 282.5,-420.2 282.5,-401.2 245.5,-401.2"/>
<text text-anchor="start" x="252.6105" y="-407.3" font-family="Helvetica,sans-Serif" font-size="11.00" fill="#000000">1 row</text>
<polygon fill="#ffffff" stroke="transparent" points="282.5,-401.2 282.5,-420.2 300.5,-420.2 300.5,-401.2 282.5,-401.2"/>
<polygon fill="none" stroke="#000000" points="282.5,-401.2 282.5,-420.2 300.5,-420.2 300.5,-401.2 282.5,-401.2"/>
<text text-anchor="start" x="291.3862" y="-407.3" font-family="Helvetica,sans-Serif" font-size="11.00" fill="#000000"> &#160;</text>
</a>
</g>
</g>
<!-- usuarios -->
<g id="node2" class="node">
<title>usuarios</title>
<g id="a_node2"><a xlink:href="../../tables/usuarios.html" xlink:title="usuarios" target="_top">
<polygon fill="#ffffff" stroke="transparent" points="8,-235.7 8,-340.7 92,-340.7 92,-235.7 8,-235.7"/>
<polygon fill="#f5f5f5" stroke="transparent" points="8,-317.2 8,-340.2 92,-340.2 92,-317.2 8,-317.2"/>
<polygon fill="none" stroke="#000000" points="8,-317.2 8,-340.2 92,-340.2 92,-317.2 8,-317.2"/>
<text text-anchor="start" x="12.7188" y="-326.3" font-family="Helvetica,sans-Serif" font-weight="bold" font-size="11.00" fill="#000000">usuarios</text>
<text text-anchor="start" x="57.5219" y="-325.3" font-family="Helvetica,sans-Serif" font-size="11.00" fill="#000000">[table]</text>
<polygon fill="none" stroke="#000000" points="8,-295.2 8,-317.2 92,-317.2 92,-295.2 8,-295.2"/>
<image xlink:href="../../images/primaryKeys.png" width="11px" height="12px" preserveAspectRatio="xMinYMin meet" x="13" y="-312.2"/>
<text text-anchor="start" x="32" y="-302.3" font-family="Helvetica,sans-Serif" font-size="11.00" fill="#000000">idusuario</text>
<polygon fill="#ffffff" stroke="transparent" points="8,-273.2 8,-295.2 92,-295.2 92,-273.2 8,-273.2"/>
<polygon fill="none" stroke="#000000" points="8,-273.2 8,-295.2 92,-295.2 92,-273.2 8,-273.2"/>
<text text-anchor="start" x="32" y="-280.3" font-family="Helvetica,sans-Serif" font-size="11.00" fill="#000000">username</text>
<polygon fill="none" stroke="#000000" points="8,-254.2 8,-273.2 92,-273.2 92,-254.2 8,-254.2"/>
<text text-anchor="start" x="11" y="-260.3" font-family="Helvetica,sans-Serif" font-size="11.00" fill="#000000">...</text>
<polygon fill="#ffffff" stroke="transparent" points="8,-235.2 8,-254.2 26,-254.2 26,-235.2 8,-235.2"/>
<polygon fill="none" stroke="#000000" points="8,-235.2 8,-254.2 26,-254.2 26,-235.2 8,-235.2"/>
<text text-anchor="start" x="11" y="-241.3" font-family="Helvetica,sans-Serif" font-size="11.00" fill="#000000"> &#160;</text>
<polygon fill="#ffffff" stroke="transparent" points="26,-235.2 26,-254.2 67,-254.2 67,-235.2 26,-235.2"/>
<polygon fill="none" stroke="#000000" points="26,-235.2 26,-254.2 67,-254.2 67,-235.2 26,-235.2"/>
<text text-anchor="start" x="31.6105" y="-241.3" font-family="Helvetica,sans-Serif" font-size="11.00" fill="#000000">9 rows</text>
<polygon fill="#ffffff" stroke="transparent" points="67,-235.2 67,-254.2 92,-254.2 92,-235.2 67,-235.2"/>
<polygon fill="none" stroke="#000000" points="67,-235.2 67,-254.2 92,-254.2 92,-235.2 67,-235.2"/>
<text text-anchor="start" x="73.4053" y="-241.3" font-family="Helvetica,sans-Serif" font-size="11.00" fill="#000000">4 &gt;</text>
</a>
</g>
</g>
<!-- anuncios&#45;&gt;usuarios -->
<g id="edge1" class="edge">
<title>anuncios:w&#45;&gt;usuarios:e</title>
<path fill="none" stroke="#000000" d="M199.052,-428.6456C170.2558,-426.1936 157.3618,-415.3582 133,-391.2 103.2177,-361.6666 133.9429,-306.2 92,-306.2"/>
<polygon fill="#000000" stroke="#000000" points="205.5059,-428.8932 213.3619,-432.7974 209.5029,-429.0466 213.5,-429.2 213.5,-429.2 213.5,-429.2 209.5029,-429.0466 213.6381,-425.6026 205.5059,-428.8932 205.5059,-428.8932"/>
<ellipse fill="none" stroke="#000000" cx="202.3082" cy="-428.7705" rx="3.2" ry="3.2"/>
</g>
<!-- colmados -->
<g id="node3" class="node">
<title>colmados</title>
<g id="a_node3"><a xlink:href="../../tables/colmados.html" xlink:title="colmados" target="_top">
<polygon fill="#ffffff" stroke="transparent" points="211.5,-319.7 211.5,-380.7 301.5,-380.7 301.5,-319.7 211.5,-319.7"/>
<polygon fill="#f5f5f5" stroke="transparent" points="211.5,-357.2 211.5,-380.2 301.5,-380.2 301.5,-357.2 211.5,-357.2"/>
<polygon fill="none" stroke="#000000" points="211.5,-357.2 211.5,-380.2 301.5,-380.2 301.5,-357.2 211.5,-357.2"/>
<text text-anchor="start" x="216.4688" y="-366.3" font-family="Helvetica,sans-Serif" font-weight="bold" font-size="11.00" fill="#000000">colmados</text>
<text text-anchor="start" x="267.0219" y="-365.3" font-family="Helvetica,sans-Serif" font-size="11.00" fill="#000000">[table]</text>
<polygon fill="none" stroke="#000000" points="211.5,-338.2 211.5,-357.2 301.5,-357.2 301.5,-338.2 211.5,-338.2"/>
<text text-anchor="start" x="214.5" y="-344.3" font-family="Helvetica,sans-Serif" font-size="11.00" fill="#000000">...</text>
<polygon fill="#ffffff" stroke="transparent" points="211.5,-319.2 211.5,-338.2 241.5,-338.2 241.5,-319.2 211.5,-319.2"/>
<polygon fill="none" stroke="#000000" points="211.5,-319.2 211.5,-338.2 241.5,-338.2 241.5,-319.2 211.5,-319.2"/>
<text text-anchor="start" x="214.5" y="-325.3" font-family="Helvetica,sans-Serif" font-size="11.00" fill="#000000">&lt; 1</text>
<polygon fill="#ffffff" stroke="transparent" points="241.5,-319.2 241.5,-338.2 284.5,-338.2 284.5,-319.2 241.5,-319.2"/>
<polygon fill="none" stroke="#000000" points="241.5,-319.2 241.5,-338.2 284.5,-338.2 284.5,-319.2 241.5,-319.2"/>
<text text-anchor="start" x="249.1105" y="-325.3" font-family="Helvetica,sans-Serif" font-size="11.00" fill="#000000">0 rows</text>
<polygon fill="#ffffff" stroke="transparent" points="284.5,-319.2 284.5,-338.2 301.5,-338.2 301.5,-319.2 284.5,-319.2"/>
<polygon fill="none" stroke="#000000" points="284.5,-319.2 284.5,-338.2 301.5,-338.2 301.5,-319.2 284.5,-319.2"/>
<text text-anchor="start" x="292.3862" y="-325.3" font-family="Helvetica,sans-Serif" font-size="11.00" fill="#000000"> &#160;</text>
</a>
</g>
</g>
<!-- colmados&#45;&gt;usuarios -->
<g id="edge2" class="edge">
<title>colmados:w&#45;&gt;usuarios:e</title>
<path fill="none" stroke="#000000" d="M196.9178,-346.1865C153.5697,-339.8729 142.8861,-306.2 92,-306.2"/>
<polygon fill="#000000" stroke="#000000" points="203.5193,-346.6453 211.2504,-350.7913 207.5096,-346.9226 211.5,-347.2 211.5,-347.2 211.5,-347.2 207.5096,-346.9226 211.7496,-343.6087 203.5193,-346.6453 203.5193,-346.6453"/>
<ellipse fill="none" stroke="#000000" cx="200.327" cy="-346.4234" rx="3.2" ry="3.2"/>
</g>
<!-- pedidos -->
<g id="node4" class="node">
<title>pedidos</title>
<g id="a_node4"><a xlink:href="../../tables/pedidos.html" xlink:title="pedidos" target="_top">
<polygon fill="#ffffff" stroke="transparent" points="216,-237.7 216,-298.7 297,-298.7 297,-237.7 216,-237.7"/>
<polygon fill="#f5f5f5" stroke="transparent" points="216.5,-275.2 216.5,-298.2 297.5,-298.2 297.5,-275.2 216.5,-275.2"/>
<polygon fill="none" stroke="#000000" points="216.5,-275.2 216.5,-298.2 297.5,-298.2 297.5,-275.2 216.5,-275.2"/>
<text text-anchor="start" x="221.2423" y="-284.3" font-family="Helvetica,sans-Serif" font-weight="bold" font-size="11.00" fill="#000000">pedidos</text>
<text text-anchor="start" x="263.0219" y="-283.3" font-family="Helvetica,sans-Serif" font-size="11.00" fill="#000000">[table]</text>
<polygon fill="none" stroke="#000000" points="216.5,-256.2 216.5,-275.2 297.5,-275.2 297.5,-256.2 216.5,-256.2"/>
<text text-anchor="start" x="219.5" y="-262.3" font-family="Helvetica,sans-Serif" font-size="11.00" fill="#000000">...</text>
<polygon fill="#ffffff" stroke="transparent" points="216.5,-237.2 216.5,-256.2 242.5,-256.2 242.5,-237.2 216.5,-237.2"/>
<polygon fill="none" stroke="#000000" points="216.5,-237.2 216.5,-256.2 242.5,-256.2 242.5,-237.2 216.5,-237.2"/>
<text text-anchor="start" x="219.5" y="-243.3" font-family="Helvetica,sans-Serif" font-size="11.00" fill="#000000">&lt; 1</text>
<polygon fill="#ffffff" stroke="transparent" points="242.5,-237.2 242.5,-256.2 282.5,-256.2 282.5,-237.2 242.5,-237.2"/>
<polygon fill="none" stroke="#000000" points="242.5,-237.2 242.5,-256.2 282.5,-256.2 282.5,-237.2 242.5,-237.2"/>
<text text-anchor="start" x="247.1105" y="-243.3" font-family="Helvetica,sans-Serif" font-size="11.00" fill="#000000">3 rows</text>
<polygon fill="#ffffff" stroke="transparent" points="282.5,-237.2 282.5,-256.2 297.5,-256.2 297.5,-237.2 282.5,-237.2"/>
<polygon fill="none" stroke="#000000" points="282.5,-237.2 282.5,-256.2 297.5,-256.2 297.5,-237.2 282.5,-237.2"/>
<text text-anchor="start" x="288.3862" y="-243.3" font-family="Helvetica,sans-Serif" font-size="11.00" fill="#000000"> &#160;</text>
</a>
</g>
</g>
<!-- pedidos&#45;&gt;usuarios -->
<g id="edge3" class="edge">
<title>pedidos:w&#45;&gt;usuarios:e</title>
<path fill="none" stroke="#000000" d="M201.9424,-266.1334C156.4025,-272.2362 145.0226,-306.2 92,-306.2"/>
<polygon fill="#000000" stroke="#000000" points="208.5164,-265.7119 216.7304,-268.7926 212.5082,-265.456 216.5,-265.2 216.5,-265.2 216.5,-265.2 212.5082,-265.456 216.2696,-261.6074 208.5164,-265.7119 208.5164,-265.7119"/>
<ellipse fill="none" stroke="#000000" cx="205.323" cy="-265.9167" rx="3.2" ry="3.2"/>
</g>
<!-- plantas -->
<g id="node5" class="node">
<title>plantas</title>
<g id="a_node5"><a xlink:href="../../tables/plantas.html" xlink:title="plantas" target="_top">
<polygon fill="#ffffff" stroke="transparent" points="141,-38.2 141,-216.2 372,-216.2 372,-38.2 141,-38.2"/>
<polygon fill="#f5f5f5" stroke="transparent" points="143.5,-191.2 143.5,-214.2 370.5,-214.2 370.5,-191.2 143.5,-191.2"/>
<polygon fill="none" stroke="#000000" points="143.5,-191.2 143.5,-214.2 370.5,-214.2 370.5,-191.2 143.5,-191.2"/>
<text text-anchor="start" x="148.5" y="-200.3" font-family="Helvetica,sans-Serif" font-weight="bold" font-size="11.00" fill="#000000">plantas</text>
<text text-anchor="start" x="335.5437" y="-199.3" font-family="Helvetica,sans-Serif" font-size="11.00" fill="#000000">[table]</text>
<polygon fill="none" stroke="#000000" points="143.5,-169.2 143.5,-191.2 220.5,-191.2 220.5,-169.2 143.5,-169.2"/>
<image xlink:href="../../images/primaryKeys.png" width="11px" height="12px" preserveAspectRatio="xMinYMin meet" x="148.5" y="-186.2"/>
<text text-anchor="start" x="163.5" y="-176.3" font-family="Helvetica,sans-Serif" font-size="11.00" fill="#000000">idplanta</text>
<polygon fill="none" stroke="#000000" points="220.5,-169.2 220.5,-191.2 370.5,-191.2 370.5,-169.2 220.5,-169.2"/>
<text text-anchor="start" x="223.5" y="-176.9" font-family="Helvetica,sans-Serif" font-size="11.00" fill="#000000">integer[2000000000,10]</text>
<polygon fill="none" stroke="#000000" points="143.5,-147.2 143.5,-169.2 220.5,-169.2 220.5,-147.2 143.5,-147.2"/>
<image xlink:href="../../images/foreignKeys.png" width="11px" height="12px" preserveAspectRatio="xMinYMin meet" x="148.5" y="-164.2"/>
<text text-anchor="start" x="163.5" y="-154.3" font-family="Helvetica,sans-Serif" font-size="11.00" fill="#000000">idusuario</text>
<polygon fill="none" stroke="#000000" points="220.5,-147.2 220.5,-169.2 370.5,-169.2 370.5,-147.2 220.5,-147.2"/>
<text text-anchor="start" x="223.5" y="-154.9" font-family="Helvetica,sans-Serif" font-size="11.00" fill="#000000">integer[2000000000,10]</text>
<polygon fill="#ffffff" stroke="transparent" points="143.5,-125.2 143.5,-147.2 220.5,-147.2 220.5,-125.2 143.5,-125.2"/>
<polygon fill="none" stroke="#000000" points="143.5,-125.2 143.5,-147.2 220.5,-147.2 220.5,-125.2 143.5,-125.2"/>
<text text-anchor="start" x="163.5" y="-132.3" font-family="Helvetica,sans-Serif" font-size="11.00" fill="#000000">nombre</text>
<polygon fill="none" stroke="#000000" points="220.5,-125.2 220.5,-147.2 370.5,-147.2 370.5,-125.2 220.5,-125.2"/>
<text text-anchor="start" x="223.0568" y="-132.9" font-family="Helvetica,sans-Serif" font-size="11.00" fill="#000000">varchar(255)[2000000000,10]</text>
<polygon fill="#ffffff" stroke="transparent" points="143.5,-103.2 143.5,-125.2 220.5,-125.2 220.5,-103.2 143.5,-103.2"/>
<polygon fill="none" stroke="#000000" points="143.5,-103.2 143.5,-125.2 220.5,-125.2 220.5,-103.2 143.5,-103.2"/>
<text text-anchor="start" x="163.5" y="-110.3" font-family="Helvetica,sans-Serif" font-size="11.00" fill="#000000">rnc</text>
<polygon fill="none" stroke="#000000" points="220.5,-103.2 220.5,-125.2 370.5,-125.2 370.5,-103.2 220.5,-103.2"/>
<text text-anchor="start" x="223.5" y="-110.9" font-family="Helvetica,sans-Serif" font-size="11.00" fill="#000000">varchar(9)[2000000000,10]</text>
<polygon fill="none" stroke="#000000" points="143.5,-81.2 143.5,-103.2 220.5,-103.2 220.5,-81.2 143.5,-81.2"/>
<text text-anchor="start" x="163.5" y="-88.3" font-family="Helvetica,sans-Serif" font-size="11.00" fill="#000000">ubicacion</text>
<polygon fill="none" stroke="#000000" points="220.5,-81.2 220.5,-103.2 370.5,-103.2 370.5,-81.2 220.5,-81.2"/>
<text text-anchor="start" x="223.0568" y="-88.9" font-family="Helvetica,sans-Serif" font-size="11.00" fill="#000000">varchar(255)[2000000000,10]</text>
<polygon fill="none" stroke="#000000" points="143.5,-59.2 143.5,-81.2 220.5,-81.2 220.5,-59.2 143.5,-59.2"/>
<text text-anchor="start" x="163.5" y="-66.3" font-family="Helvetica,sans-Serif" font-size="11.00" fill="#000000">owner</text>
<polygon fill="none" stroke="#000000" points="220.5,-59.2 220.5,-81.2 370.5,-81.2 370.5,-59.2 220.5,-59.2"/>
<text text-anchor="start" x="223.5" y="-66.9" font-family="Helvetica,sans-Serif" font-size="11.00" fill="#000000">varchar(50)[2000000000,10]</text>
<polygon fill="#ffffff" stroke="transparent" points="143.5,-40.2 143.5,-59.2 173.5,-59.2 173.5,-40.2 143.5,-40.2"/>
<polygon fill="none" stroke="#000000" points="143.5,-40.2 143.5,-59.2 173.5,-59.2 173.5,-40.2 143.5,-40.2"/>
<text text-anchor="start" x="146.5" y="-46.3" font-family="Helvetica,sans-Serif" font-size="11.00" fill="#000000">&lt; 1</text>
<polygon fill="#ffffff" stroke="transparent" points="173.5,-40.2 173.5,-59.2 220.5,-59.2 220.5,-40.2 173.5,-40.2"/>
<polygon fill="none" stroke="#000000" points="173.5,-40.2 173.5,-59.2 220.5,-59.2 220.5,-40.2 173.5,-40.2"/>
<text text-anchor="start" x="185.1105" y="-46.3" font-family="Helvetica,sans-Serif" font-size="11.00" fill="#000000">0 rows</text>
<polygon fill="#ffffff" stroke="transparent" points="220.5,-40.2 220.5,-59.2 370.5,-59.2 370.5,-40.2 220.5,-40.2"/>
<polygon fill="none" stroke="#000000" points="220.5,-40.2 220.5,-59.2 370.5,-59.2 370.5,-40.2 220.5,-40.2"/>
<text text-anchor="start" x="351.9053" y="-46.3" font-family="Helvetica,sans-Serif" font-size="11.00" fill="#000000">0 &gt;</text>
<polygon fill="none" stroke="#000000" stroke-width="2" points="142,-39.2 142,-215.2 371,-215.2 371,-39.2 142,-39.2"/>
</a>
</g>
</g>
<!-- plantas&#45;&gt;usuarios -->
<g id="edge4" class="edge">
<title>plantas:w&#45;&gt;usuarios:e</title>
<path fill="none" stroke="#000000" d="M129.3649,-161.0243C87.1977,-181.4853 155.9332,-306.2 92,-306.2"/>
<polygon fill="#000000" stroke="#000000" points="135.6551,-159.7675 144.2054,-161.7302 139.5775,-158.9838 143.5,-158.2 143.5,-158.2 143.5,-158.2 139.5775,-158.9838 142.7946,-154.6698 135.6551,-159.7675 135.6551,-159.7675"/>
<ellipse fill="none" stroke="#000000" cx="132.5171" cy="-160.3946" rx="3.2" ry="3.2"/>
</g>
</g>
</svg>
