<?xml version="1.0" encoding="UTF-8" standalone="no"?>
<!DOCTYPE svg PUBLIC "-//W3C//DTD SVG 1.1//EN"
 "http://www.w3.org/Graphics/SVG/1.1/DTD/svg11.dtd">
<!-- Generated by graphviz version 2.40.1 (20161225.0304)
 -->
<!-- Title: oneDegreeRelationshipsDiagram Pages: 1 -->
<svg width="388pt" height="228pt"
 viewBox="0.00 0.00 388.00 228.20" xmlns="http://www.w3.org/2000/svg" xmlns:xlink="http://www.w3.org/1999/xlink">
<g id="graph0" class="graph" transform="scale(1 1) rotate(0) translate(4 224.2)">
<title>oneDegreeRelationshipsDiagram</title>
<polygon fill="#ffffff" stroke="transparent" points="-4,4 -4,-224.2 384,-224.2 384,4 -4,4"/>
<text text-anchor="middle" x="72.4936" y="-7.3" font-family="Helvetica,sans-Serif" font-size="11.00" fill="#000000">Generated by SchemaSpy</text>
<!-- plantas -->
<g id="node1" class="node">
<title>plantas</title>
<g id="a_node1"><a xlink:href="../../tables/plantas.html" xlink:title="plantas" target="_top">
<polygon fill="#ffffff" stroke="transparent" points="141,-38.2 141,-216.2 372,-216.2 372,-38.2 141,-38.2"/>
<polygon fill="#f5f5f5" stroke="transparent" points="143.5,-191.2 143.5,-214.2 370.5,-214.2 370.5,-191.2 143.5,-191.2"/>
<polygon fill="none" stroke="#000000" points="143.5,-191.2 143.5,-214.2 370.5,-214.2 370.5,-191.2 143.5,-191.2"/>
<text text-anchor="start" x="148.5" y="-200.3" font-family="Helvetica,sans-Serif" font-weight="bold" font-size="11.00" fill="#000000">plantas</text>
<text text-anchor="start" x="335.5437" y="-199.3" font-family="Helvetica,sans-Serif" font-size="11.00" fill="#000000">[table]</text>
<polygon fill="none" stroke="#000000" points="143.5,-169.2 143.5,-191.2 220.5,-191.2 220.5,-169.2 143.5,-169.2"/>
<image xlink:href="../../images/primaryKeys.png" width="11px" height="12px" preserveAspectRatio="xMinYMin meet" x="148.5" y="-186.2"/>
<text text-anchor="start" x="163.5" y="-176.3" font-family="Helvetica,sans-Serif" font-size="11.00" fill="#000000">idplanta</text>
<polygon fill="none" stroke="#000000" points="220.5,-169.2 220.5,-191.2 370.5,-191.2 370.5,-169.2 220.5,-169.2"/>
<text text-anchor="start" x="223.5" y="-176.9" font-family="Helvetica,sans-Serif" font-size="11.00" fill="#000000">integer[2000000000,10]</text>
<polygon fill="none" stroke="#000000" points="143.5,-147.2 143.5,-169.2 220.5,-169.2 220.5,-147.2 143.5,-147.2"/>
<image xlink:href="../../images/foreignKeys.png" width="11px" height="12px" preserveAspectRatio="xMinYMin meet" x="148.5" y="-164.2"/>
<text text-anchor="start" x="163.5" y="-154.3" font-family="Helvetica,sans-Serif" font-size="11.00" fill="#000000">idusuario</text>
<polygon fill="none" stroke="#000000" points="220.5,-147.2 220.5,-169.2 370.5,-169.2 370.5,-147.2 220.5,-147.2"/>
<text text-anchor="start" x="223.5" y="-154.9" font-family="Helvetica,sans-Serif" font-size="11.00" fill="#000000">integer[2000000000,10]</text>
<polygon fill="#ffffff" stroke="transparent" points="143.5,-125.2 143.5,-147.2 220.5,-147.2 220.5,-125.2 143.5,-125.2"/>
<polygon fill="none" stroke="#000000" points="143.5,-125.2 143.5,-147.2 220.5,-147.2 220.5,-125.2 143.5,-125.2"/>
<text text-anchor="start" x="163.5" y="-132.3" font-family="Helvetica,sans-Serif" font-size="11.00" fill="#000000">nombre</text>
<polygon fill="none" stroke="#000000" points="220.5,-125.2 220.5,-147.2 370.5,-147.2 370.5,-125.2 220.5,-125.2"/>
<text text-anchor="start" x="223.0568" y="-132.9" font-family="Helvetica,sans-Serif" font-size="11.00" fill="#000000">varchar(255)[2000000000,10]</text>
<polygon fill="#ffffff" stroke="transparent" points="143.5,-103.2 143.5,-125.2 220.5,-125.2 220.5,-103.2 143.5,-103.2"/>
<polygon fill="none" stroke="#000000" points="143.5,-103.2 143.5,-125.2 220.5,-125.2 220.5,-103.2 143.5,-103.2"/>
<text text-anchor="start" x="163.5" y="-110.3" font-family="Helvetica,sans-Serif" font-size="11.00" fill="#000000">rnc</text>
<polygon fill="none" stroke="#000000" points="220.5,-103.2 220.5,-125.2 370.5,-125.2 370.5,-103.2 220.5,-103.2"/>
<text text-anchor="start" x="223.5" y="-110.9" font-family="Helvetica,sans-Serif" font-size="11.00" fill="#000000">varchar(9)[2000000000,10]</text>
<polygon fill="none" stroke="#000000" points="143.5,-81.2 143.5,-103.2 220.5,-103.2 220.5,-81.2 143.5,-81.2"/>
<text text-anchor="start" x="163.5" y="-88.3" font-family="Helvetica,sans-Serif" font-size="11.00" fill="#000000">ubicacion</text>
<polygon fill="none" stroke="#000000" points="220.5,-81.2 220.5,-103.2 370.5,-103.2 370.5,-81.2 220.5,-81.2"/>
<text text-anchor="start" x="223.0568" y="-88.9" font-family="Helvetica,sans-Serif" font-size="11.00" fill="#000000">varchar(255)[2000000000,10]</text>
<polygon fill="none" stroke="#000000" points="143.5,-59.2 143.5,-81.2 220.5,-81.2 220.5,-59.2 143.5,-59.2"/>
<text text-anchor="start" x="163.5" y="-66.3" font-family="Helvetica,sans-Serif" font-size="11.00" fill="#000000">owner</text>
<polygon fill="none" stroke="#000000" points="220.5,-59.2 220.5,-81.2 370.5,-81.2 370.5,-59.2 220.5,-59.2"/>
<text text-anchor="start" x="223.5" y="-66.9" font-family="Helvetica,sans-Serif" font-size="11.00" fill="#000000">varchar(50)[2000000000,10]</text>
<polygon fill="#ffffff" stroke="transparent" points="143.5,-40.2 143.5,-59.2 173.5,-59.2 173.5,-40.2 143.5,-40.2"/>
<polygon fill="none" stroke="#000000" points="143.5,-40.2 143.5,-59.2 173.5,-59.2 173.5,-40.2 143.5,-40.2"/>
<text text-anchor="start" x="146.5" y="-46.3" font-family="Helvetica,sans-Serif" font-size="11.00" fill="#000000">&lt; 1</text>
<polygon fill="#ffffff" stroke="transparent" points="173.5,-40.2 173.5,-59.2 220.5,-59.2 220.5,-40.2 173.5,-40.2"/>
<polygon fill="none" stroke="#000000" points="173.5,-40.2 173.5,-59.2 220.5,-59.2 220.5,-40.2 173.5,-40.2"/>
<text text-anchor="start" x="185.1105" y="-46.3" font-family="Helvetica,sans-Serif" font-size="11.00" fill="#000000">0 rows</text>
<polygon fill="#ffffff" stroke="transparent" points="220.5,-40.2 220.5,-59.2 370.5,-59.2 370.5,-40.2 220.5,-40.2"/>
<polygon fill="none" stroke="#000000" points="220.5,-40.2 220.5,-59.2 370.5,-59.2 370.5,-40.2 220.5,-40.2"/>
<text text-anchor="start" x="351.9053" y="-46.3" font-family="Helvetica,sans-Serif" font-size="11.00" fill="#000000">0 &gt;</text>
<polygon fill="none" stroke="#000000" stroke-width="2" points="142,-39.2 142,-215.2 371,-215.2 371,-39.2 142,-39.2"/>
</a>
</g>
</g>
<!-- usuarios -->
<g id="node2" class="node">
<title>usuarios</title>
<g id="a_node2"><a xlink:href="../../tables/usuarios.html" xlink:title="usuarios" target="_top">
<polygon fill="#ffffff" stroke="transparent" points="8,-87.7 8,-192.7 92,-192.7 92,-87.7 8,-87.7"/>
<polygon fill="#f5f5f5" stroke="transparent" points="8,-169.2 8,-192.2 92,-192.2 92,-169.2 8,-169.2"/>
<polygon fill="none" stroke="#000000" points="8,-169.2 8,-192.2 92,-192.2 92,-169.2 8,-169.2"/>
<text text-anchor="start" x="12.7188" y="-178.3" font-family="Helvetica,sans-Serif" font-weight="bold" font-size="11.00" fill="#000000">usuarios</text>
<text text-anchor="start" x="57.5219" y="-177.3" font-family="Helvetica,sans-Serif" font-size="11.00" fill="#000000">[table]</text>
<polygon fill="none" stroke="#000000" points="8,-147.2 8,-169.2 92,-169.2 92,-147.2 8,-147.2"/>
<image xlink:href="../../images/primaryKeys.png" width="11px" height="12px" preserveAspectRatio="xMinYMin meet" x="13" y="-164.2"/>
<text text-anchor="start" x="32" y="-154.3" font-family="Helvetica,sans-Serif" font-size="11.00" fill="#000000">idusuario</text>
<polygon fill="#ffffff" stroke="transparent" points="8,-125.2 8,-147.2 92,-147.2 92,-125.2 8,-125.2"/>
<polygon fill="none" stroke="#000000" points="8,-125.2 8,-147.2 92,-147.2 92,-125.2 8,-125.2"/>
<text text-anchor="start" x="32" y="-132.3" font-family="Helvetica,sans-Serif" font-size="11.00" fill="#000000">username</text>
<polygon fill="none" stroke="#000000" points="8,-106.2 8,-125.2 92,-125.2 92,-106.2 8,-106.2"/>
<text text-anchor="start" x="11" y="-112.3" font-family="Helvetica,sans-Serif" font-size="11.00" fill="#000000">...</text>
<polygon fill="#ffffff" stroke="transparent" points="8,-87.2 8,-106.2 26,-106.2 26,-87.2 8,-87.2"/>
<polygon fill="none" stroke="#000000" points="8,-87.2 8,-106.2 26,-106.2 26,-87.2 8,-87.2"/>
<text text-anchor="start" x="11" y="-93.3" font-family="Helvetica,sans-Serif" font-size="11.00" fill="#000000"> &#160;</text>
<polygon fill="#ffffff" stroke="transparent" points="26,-87.2 26,-106.2 67,-106.2 67,-87.2 26,-87.2"/>
<polygon fill="none" stroke="#000000" points="26,-87.2 26,-106.2 67,-106.2 67,-87.2 26,-87.2"/>
<text text-anchor="start" x="31.6105" y="-93.3" font-family="Helvetica,sans-Serif" font-size="11.00" fill="#000000">9 rows</text>
<polygon fill="#ffffff" stroke="transparent" points="67,-87.2 67,-106.2 92,-106.2 92,-87.2 67,-87.2"/>
<polygon fill="none" stroke="#000000" points="67,-87.2 67,-106.2 92,-106.2 92,-87.2 67,-87.2"/>
<text text-anchor="start" x="73.4053" y="-93.3" font-family="Helvetica,sans-Serif" font-size="11.00" fill="#000000">4 &gt;</text>
</a>
</g>
</g>
<!-- plantas&#45;&gt;usuarios -->
<g id="edge1" class="edge">
<title>plantas:w&#45;&gt;usuarios:e</title>
<path fill="none" stroke="#000000" d="M129.0156,-158.2C116.6771,-158.2 109.1667,-158.2 92,-158.2"/>
<polygon fill="#000000" stroke="#000000" points="135.5,-158.2001 143.5,-161.8 139.5,-158.2 143.5,-158.2 143.5,-158.2 143.5,-158.2 139.5,-158.2 143.5,-154.6 135.5,-158.2001 135.5,-158.2001"/>
<ellipse fill="none" stroke="#000000" cx="132.3" cy="-158.2001" rx="3.2" ry="3.2"/>
</g>
</g>
</svg>
