<?xml version="1.0" encoding="UTF-8" standalone="no"?>
<!DOCTYPE svg PUBLIC "-//W3C//DTD SVG 1.1//EN"
 "http://www.w3.org/Graphics/SVG/1.1/DTD/svg11.dtd">
<!-- Generated by graphviz version 2.40.1 (20161225.0304)
 -->
<!-- Title: oneDegreeRelationshipsDiagram Pages: 1 -->
<svg width="396pt" height="577pt"
 viewBox="0.00 0.00 396.00 577.20" xmlns="http://www.w3.org/2000/svg" xmlns:xlink="http://www.w3.org/1999/xlink">
<g id="graph0" class="graph" transform="scale(1 1) rotate(0) translate(4 573.2)">
<title>oneDegreeRelationshipsDiagram</title>
<polygon fill="#ffffff" stroke="transparent" points="-4,4 -4,-573.2 392,-573.2 392,4 -4,4"/>
<text text-anchor="middle" x="72.4936" y="-7.3" font-family="Helvetica,sans-Serif" font-size="11.00" fill="#000000">Generated by SchemaSpy</text>
<!-- anuncios -->
<g id="node1" class="node">
<title>anuncios</title>
<g id="a_node1"><a xlink:href="../../tables/anuncios.html" xlink:title="anuncios" target="_top">
<polygon fill="#ffffff" stroke="transparent" points="290.5,-460.2 290.5,-565.2 377.5,-565.2 377.5,-460.2 290.5,-460.2"/>
<polygon fill="#f5f5f5" stroke="transparent" points="291,-541.7 291,-564.7 378,-564.7 378,-541.7 291,-541.7"/>
<polygon fill="none" stroke="#000000" points="291,-541.7 291,-564.7 378,-564.7 378,-541.7 291,-541.7"/>
<text text-anchor="start" x="295.9923" y="-550.8" font-family="Helvetica,sans-Serif" font-weight="bold" font-size="11.00" fill="#000000">anuncios</text>
<text text-anchor="start" x="343.5219" y="-549.8" font-family="Helvetica,sans-Serif" font-size="11.00" fill="#000000">[table]</text>
<polygon fill="none" stroke="#000000" points="291,-519.7 291,-541.7 378,-541.7 378,-519.7 291,-519.7"/>
<image xlink:href="../../images/primaryKeys.png" width="11px" height="12px" preserveAspectRatio="xMinYMin meet" x="296" y="-536.7"/>
<text text-anchor="start" x="316" y="-526.8" font-family="Helvetica,sans-Serif" font-size="11.00" fill="#000000">idanuncio</text>
<polygon fill="none" stroke="#000000" points="291,-497.7 291,-519.7 378,-519.7 378,-497.7 291,-497.7"/>
<image xlink:href="../../images/foreignKeys.png" width="11px" height="12px" preserveAspectRatio="xMinYMin meet" x="296" y="-514.7"/>
<text text-anchor="start" x="316" y="-504.8" font-family="Helvetica,sans-Serif" font-size="11.00" fill="#000000">idusuario</text>
<polygon fill="none" stroke="#000000" points="291,-478.7 291,-497.7 378,-497.7 378,-478.7 291,-478.7"/>
<text text-anchor="start" x="294" y="-484.8" font-family="Helvetica,sans-Serif" font-size="11.00" fill="#000000">...</text>
<polygon fill="#ffffff" stroke="transparent" points="291,-459.7 291,-478.7 323,-478.7 323,-459.7 291,-459.7"/>
<polygon fill="none" stroke="#000000" points="291,-459.7 291,-478.7 323,-478.7 323,-459.7 291,-459.7"/>
<text text-anchor="start" x="294" y="-465.8" font-family="Helvetica,sans-Serif" font-size="11.00" fill="#000000">&lt; 1</text>
<polygon fill="#ffffff" stroke="transparent" points="323,-459.7 323,-478.7 360,-478.7 360,-459.7 323,-459.7"/>
<polygon fill="none" stroke="#000000" points="323,-459.7 323,-478.7 360,-478.7 360,-459.7 323,-459.7"/>
<text text-anchor="start" x="330.1105" y="-465.8" font-family="Helvetica,sans-Serif" font-size="11.00" fill="#000000">1 row</text>
<polygon fill="#ffffff" stroke="transparent" points="360,-459.7 360,-478.7 378,-478.7 378,-459.7 360,-459.7"/>
<polygon fill="none" stroke="#000000" points="360,-459.7 360,-478.7 378,-478.7 378,-459.7 360,-459.7"/>
<text text-anchor="start" x="368.8862" y="-465.8" font-family="Helvetica,sans-Serif" font-size="11.00" fill="#000000"> &#160;</text>
</a>
</g>
</g>
<!-- usuarios -->
<g id="node2" class="node">
<title>usuarios</title>
<g id="a_node2"><a xlink:href="../../tables/usuarios.html" xlink:title="usuarios" target="_top">
<polygon fill="#ffffff" stroke="transparent" points="8,-133.7 8,-355.7 239,-355.7 239,-133.7 8,-133.7"/>
<polygon fill="#f5f5f5" stroke="transparent" points="10.5,-330.7 10.5,-353.7 237.5,-353.7 237.5,-330.7 10.5,-330.7"/>
<polygon fill="none" stroke="#000000" points="10.5,-330.7 10.5,-353.7 237.5,-353.7 237.5,-330.7 10.5,-330.7"/>
<text text-anchor="start" x="15.5" y="-339.8" font-family="Helvetica,sans-Serif" font-weight="bold" font-size="11.00" fill="#000000">usuarios</text>
<text text-anchor="start" x="202.5437" y="-338.8" font-family="Helvetica,sans-Serif" font-size="11.00" fill="#000000">[table]</text>
<polygon fill="none" stroke="#000000" points="10.5,-308.7 10.5,-330.7 87.5,-330.7 87.5,-308.7 10.5,-308.7"/>
<image xlink:href="../../images/primaryKeys.png" width="11px" height="12px" preserveAspectRatio="xMinYMin meet" x="15.5" y="-325.7"/>
<text text-anchor="start" x="30.5" y="-315.8" font-family="Helvetica,sans-Serif" font-size="11.00" fill="#000000">idusuario</text>
<polygon fill="none" stroke="#000000" points="87.5,-308.7 87.5,-330.7 237.5,-330.7 237.5,-308.7 87.5,-308.7"/>
<text text-anchor="start" x="90.5" y="-316.4" font-family="Helvetica,sans-Serif" font-size="11.00" fill="#000000">integer[2000000000,10]</text>
<polygon fill="#ffffff" stroke="transparent" points="10.5,-286.7 10.5,-308.7 87.5,-308.7 87.5,-286.7 10.5,-286.7"/>
<polygon fill="none" stroke="#000000" points="10.5,-286.7 10.5,-308.7 87.5,-308.7 87.5,-286.7 10.5,-286.7"/>
<text text-anchor="start" x="30.5" y="-293.8" font-family="Helvetica,sans-Serif" font-size="11.00" fill="#000000">username</text>
<polygon fill="none" stroke="#000000" points="87.5,-286.7 87.5,-308.7 237.5,-308.7 237.5,-286.7 87.5,-286.7"/>
<text text-anchor="start" x="90.0568" y="-294.4" font-family="Helvetica,sans-Serif" font-size="11.00" fill="#000000">varchar(100)[2000000000,10]</text>
<polygon fill="none" stroke="#000000" points="10.5,-264.7 10.5,-286.7 87.5,-286.7 87.5,-264.7 10.5,-264.7"/>
<text text-anchor="start" x="30.5" y="-271.8" font-family="Helvetica,sans-Serif" font-size="11.00" fill="#000000">password</text>
<polygon fill="none" stroke="#000000" points="87.5,-264.7 87.5,-286.7 237.5,-286.7 237.5,-264.7 87.5,-264.7"/>
<text text-anchor="start" x="90.0568" y="-272.4" font-family="Helvetica,sans-Serif" font-size="11.00" fill="#000000">varchar(255)[2000000000,10]</text>
<polygon fill="none" stroke="#000000" points="10.5,-242.7 10.5,-264.7 87.5,-264.7 87.5,-242.7 10.5,-242.7"/>
<text text-anchor="start" x="30.5" y="-249.8" font-family="Helvetica,sans-Serif" font-size="11.00" fill="#000000">status</text>
<polygon fill="none" stroke="#000000" points="87.5,-242.7 87.5,-264.7 237.5,-264.7 237.5,-242.7 87.5,-242.7"/>
<text text-anchor="start" x="90.5" y="-250.4" font-family="Helvetica,sans-Serif" font-size="11.00" fill="#000000">boolean[2000000000,10]</text>
<polygon fill="none" stroke="#000000" points="10.5,-220.7 10.5,-242.7 87.5,-242.7 87.5,-220.7 10.5,-220.7"/>
<text text-anchor="start" x="30.5" y="-227.8" font-family="Helvetica,sans-Serif" font-size="11.00" fill="#000000">created</text>
<polygon fill="none" stroke="#000000" points="87.5,-220.7 87.5,-242.7 237.5,-242.7 237.5,-220.7 87.5,-220.7"/>
<text text-anchor="start" x="90.5" y="-228.4" font-family="Helvetica,sans-Serif" font-size="11.00" fill="#000000">datetime[2000000000,10]</text>
<polygon fill="none" stroke="#000000" points="10.5,-198.7 10.5,-220.7 87.5,-220.7 87.5,-198.7 10.5,-198.7"/>
<text text-anchor="start" x="30.5" y="-205.8" font-family="Helvetica,sans-Serif" font-size="11.00" fill="#000000">admin</text>
<polygon fill="none" stroke="#000000" points="87.5,-198.7 87.5,-220.7 237.5,-220.7 237.5,-198.7 87.5,-198.7"/>
<text text-anchor="start" x="90.5" y="-206.4" font-family="Helvetica,sans-Serif" font-size="11.00" fill="#000000">boolean[2000000000,10]</text>
<polygon fill="none" stroke="#000000" points="10.5,-176.7 10.5,-198.7 87.5,-198.7 87.5,-176.7 10.5,-176.7"/>
<text text-anchor="start" x="30.5" y="-183.8" font-family="Helvetica,sans-Serif" font-size="11.00" fill="#000000">colmado</text>
<polygon fill="none" stroke="#000000" points="87.5,-176.7 87.5,-198.7 237.5,-198.7 237.5,-176.7 87.5,-176.7"/>
<text text-anchor="start" x="90.5" y="-184.4" font-family="Helvetica,sans-Serif" font-size="11.00" fill="#000000">boolean[2000000000,10]</text>
<polygon fill="none" stroke="#000000" points="10.5,-154.7 10.5,-176.7 87.5,-176.7 87.5,-154.7 10.5,-154.7"/>
<text text-anchor="start" x="30.5" y="-161.8" font-family="Helvetica,sans-Serif" font-size="11.00" fill="#000000">cliente</text>
<polygon fill="none" stroke="#000000" points="87.5,-154.7 87.5,-176.7 237.5,-176.7 237.5,-154.7 87.5,-154.7"/>
<text text-anchor="start" x="90.5" y="-162.4" font-family="Helvetica,sans-Serif" font-size="11.00" fill="#000000">boolean[2000000000,10]</text>
<polygon fill="#ffffff" stroke="transparent" points="10.5,-135.7 10.5,-154.7 40.5,-154.7 40.5,-135.7 10.5,-135.7"/>
<polygon fill="none" stroke="#000000" points="10.5,-135.7 10.5,-154.7 40.5,-154.7 40.5,-135.7 10.5,-135.7"/>
<text text-anchor="start" x="13.5" y="-141.8" font-family="Helvetica,sans-Serif" font-size="11.00" fill="#000000">&lt; 0</text>
<polygon fill="#ffffff" stroke="transparent" points="40.5,-135.7 40.5,-154.7 87.5,-154.7 87.5,-135.7 40.5,-135.7"/>
<polygon fill="none" stroke="#000000" points="40.5,-135.7 40.5,-154.7 87.5,-154.7 87.5,-135.7 40.5,-135.7"/>
<text text-anchor="start" x="52.1105" y="-141.8" font-family="Helvetica,sans-Serif" font-size="11.00" fill="#000000">9 rows</text>
<polygon fill="#ffffff" stroke="transparent" points="87.5,-135.7 87.5,-154.7 237.5,-154.7 237.5,-135.7 87.5,-135.7"/>
<polygon fill="none" stroke="#000000" points="87.5,-135.7 87.5,-154.7 237.5,-154.7 237.5,-135.7 87.5,-135.7"/>
<text text-anchor="start" x="218.9053" y="-141.8" font-family="Helvetica,sans-Serif" font-size="11.00" fill="#000000">4 &gt;</text>
<polygon fill="none" stroke="#000000" stroke-width="2" points="9,-134.7 9,-354.7 238,-354.7 238,-134.7 9,-134.7"/>
</a>
</g>
</g>
<!-- anuncios&#45;&gt;usuarios -->
<g id="edge1" class="edge">
<title>anuncios:w&#45;&gt;usuarios:e</title>
<path fill="none" stroke="#000000" d="M276.6053,-506.4458C218.4444,-485.1219 319.1737,-319.7 237.5,-319.7"/>
<polygon fill="#000000" stroke="#000000" points="283.0963,-507.4622 290.443,-512.2567 287.0482,-508.0811 291,-508.7 291,-508.7 291,-508.7 287.0482,-508.0811 291.557,-505.1433 283.0963,-507.4622 283.0963,-507.4622"/>
<ellipse fill="none" stroke="#000000" cx="279.9349" cy="-506.9671" rx="3.2" ry="3.2"/>
</g>
<!-- colmados -->
<g id="node3" class="node">
<title>colmados</title>
<g id="a_node3"><a xlink:href="../../tables/colmados.html" xlink:title="colmados" target="_top">
<polygon fill="#ffffff" stroke="transparent" points="289,-334.2 289,-439.2 379,-439.2 379,-334.2 289,-334.2"/>
<polygon fill="#f5f5f5" stroke="transparent" points="289,-415.7 289,-438.7 379,-438.7 379,-415.7 289,-415.7"/>
<polygon fill="none" stroke="#000000" points="289,-415.7 289,-438.7 379,-438.7 379,-415.7 289,-415.7"/>
<text text-anchor="start" x="293.9688" y="-424.8" font-family="Helvetica,sans-Serif" font-weight="bold" font-size="11.00" fill="#000000">colmados</text>
<text text-anchor="start" x="344.5219" y="-423.8" font-family="Helvetica,sans-Serif" font-size="11.00" fill="#000000">[table]</text>
<polygon fill="none" stroke="#000000" points="289,-393.7 289,-415.7 379,-415.7 379,-393.7 289,-393.7"/>
<image xlink:href="../../images/primaryKeys.png" width="11px" height="12px" preserveAspectRatio="xMinYMin meet" x="294" y="-410.7"/>
<text text-anchor="start" x="316" y="-400.8" font-family="Helvetica,sans-Serif" font-size="11.00" fill="#000000">idplanta</text>
<polygon fill="none" stroke="#000000" points="289,-371.7 289,-393.7 379,-393.7 379,-371.7 289,-371.7"/>
<image xlink:href="../../images/foreignKeys.png" width="11px" height="12px" preserveAspectRatio="xMinYMin meet" x="294" y="-388.7"/>
<text text-anchor="start" x="316" y="-378.8" font-family="Helvetica,sans-Serif" font-size="11.00" fill="#000000">idusuario</text>
<polygon fill="none" stroke="#000000" points="289,-352.7 289,-371.7 379,-371.7 379,-352.7 289,-352.7"/>
<text text-anchor="start" x="292" y="-358.8" font-family="Helvetica,sans-Serif" font-size="11.00" fill="#000000">...</text>
<polygon fill="#ffffff" stroke="transparent" points="289,-333.7 289,-352.7 319,-352.7 319,-333.7 289,-333.7"/>
<polygon fill="none" stroke="#000000" points="289,-333.7 289,-352.7 319,-352.7 319,-333.7 289,-333.7"/>
<text text-anchor="start" x="292" y="-339.8" font-family="Helvetica,sans-Serif" font-size="11.00" fill="#000000">&lt; 1</text>
<polygon fill="#ffffff" stroke="transparent" points="319,-333.7 319,-352.7 362,-352.7 362,-333.7 319,-333.7"/>
<polygon fill="none" stroke="#000000" points="319,-333.7 319,-352.7 362,-352.7 362,-333.7 319,-333.7"/>
<text text-anchor="start" x="326.6105" y="-339.8" font-family="Helvetica,sans-Serif" font-size="11.00" fill="#000000">0 rows</text>
<polygon fill="#ffffff" stroke="transparent" points="362,-333.7 362,-352.7 379,-352.7 379,-333.7 362,-333.7"/>
<polygon fill="none" stroke="#000000" points="362,-333.7 362,-352.7 379,-352.7 379,-333.7 362,-333.7"/>
<text text-anchor="start" x="369.8862" y="-339.8" font-family="Helvetica,sans-Serif" font-size="11.00" fill="#000000"> &#160;</text>
</a>
</g>
</g>
<!-- colmados&#45;&gt;usuarios -->
<g id="edge2" class="edge">
<title>colmados:w&#45;&gt;usuarios:e</title>
<path fill="none" stroke="#000000" d="M275.299,-378.1692C258.1358,-363.7239 267.7316,-319.7 237.5,-319.7"/>
<polygon fill="#000000" stroke="#000000" points="281.4045,-380.1882 287.8697,-386.118 285.2023,-381.4441 289,-382.7 289,-382.7 289,-382.7 285.2023,-381.4441 290.1303,-379.282 281.4045,-380.1882 281.4045,-380.1882"/>
<ellipse fill="none" stroke="#000000" cx="278.3663" cy="-379.1835" rx="3.2" ry="3.2"/>
</g>
<!-- pedidos -->
<g id="node4" class="node">
<title>pedidos</title>
<g id="a_node4"><a xlink:href="../../tables/pedidos.html" xlink:title="pedidos" target="_top">
<polygon fill="#ffffff" stroke="transparent" points="288,-208.2 288,-313.2 380,-313.2 380,-208.2 288,-208.2"/>
<polygon fill="#f5f5f5" stroke="transparent" points="288,-289.7 288,-312.7 380,-312.7 380,-289.7 288,-289.7"/>
<polygon fill="none" stroke="#000000" points="288,-289.7 288,-312.7 380,-312.7 380,-289.7 288,-289.7"/>
<text text-anchor="start" x="293" y="-298.8" font-family="Helvetica,sans-Serif" font-weight="bold" font-size="11.00" fill="#000000">pedidos</text>
<text text-anchor="start" x="345.0437" y="-297.8" font-family="Helvetica,sans-Serif" font-size="11.00" fill="#000000">[table]</text>
<polygon fill="none" stroke="#000000" points="288,-267.7 288,-289.7 380,-289.7 380,-267.7 288,-267.7"/>
<image xlink:href="../../images/primaryKeys.png" width="11px" height="12px" preserveAspectRatio="xMinYMin meet" x="293" y="-284.7"/>
<text text-anchor="start" x="308" y="-274.8" font-family="Helvetica,sans-Serif" font-size="11.00" fill="#000000">idpedido</text>
<polygon fill="none" stroke="#000000" points="288,-245.7 288,-267.7 380,-267.7 380,-245.7 288,-245.7"/>
<image xlink:href="../../images/foreignKeys.png" width="11px" height="12px" preserveAspectRatio="xMinYMin meet" x="293" y="-262.7"/>
<text text-anchor="start" x="308" y="-252.8" font-family="Helvetica,sans-Serif" font-size="11.00" fill="#000000">idusuario</text>
<polygon fill="none" stroke="#000000" points="288,-226.7 288,-245.7 380,-245.7 380,-226.7 288,-226.7"/>
<text text-anchor="start" x="291" y="-232.8" font-family="Helvetica,sans-Serif" font-size="11.00" fill="#000000">...</text>
<polygon fill="#ffffff" stroke="transparent" points="288,-207.7 288,-226.7 319,-226.7 319,-207.7 288,-207.7"/>
<polygon fill="none" stroke="#000000" points="288,-207.7 288,-226.7 319,-226.7 319,-207.7 288,-207.7"/>
<text text-anchor="start" x="291" y="-213.8" font-family="Helvetica,sans-Serif" font-size="11.00" fill="#000000">&lt; 1</text>
<polygon fill="#ffffff" stroke="transparent" points="319,-207.7 319,-226.7 362,-226.7 362,-207.7 319,-207.7"/>
<polygon fill="none" stroke="#000000" points="319,-207.7 319,-226.7 362,-226.7 362,-207.7 319,-207.7"/>
<text text-anchor="start" x="326.6105" y="-213.8" font-family="Helvetica,sans-Serif" font-size="11.00" fill="#000000">3 rows</text>
<polygon fill="#ffffff" stroke="transparent" points="362,-207.7 362,-226.7 380,-226.7 380,-207.7 362,-207.7"/>
<polygon fill="none" stroke="#000000" points="362,-207.7 362,-226.7 380,-226.7 380,-207.7 362,-207.7"/>
<text text-anchor="start" x="370.8862" y="-213.8" font-family="Helvetica,sans-Serif" font-size="11.00" fill="#000000"> &#160;</text>
</a>
</g>
</g>
<!-- pedidos&#45;&gt;usuarios -->
<g id="edge3" class="edge">
<title>pedidos:w&#45;&gt;usuarios:e</title>
<path fill="none" stroke="#000000" d="M273.9816,-261.6435C257.738,-276.4952 267.2175,-319.7 237.5,-319.7"/>
<polygon fill="#000000" stroke="#000000" points="280.4554,-259.3606 289.1973,-260.0951 284.2277,-258.0303 288,-256.7 288,-256.7 288,-256.7 284.2277,-258.0303 286.8027,-253.3049 280.4554,-259.3606 280.4554,-259.3606"/>
<ellipse fill="none" stroke="#000000" cx="277.4375" cy="-260.4248" rx="3.2" ry="3.2"/>
</g>
<!-- plantas -->
<g id="node5" class="node">
<title>plantas</title>
<g id="a_node5"><a xlink:href="../../tables/plantas.html" xlink:title="plantas" target="_top">
<polygon fill="#ffffff" stroke="transparent" points="295,-38.2 295,-187.2 373,-187.2 373,-38.2 295,-38.2"/>
<polygon fill="#f5f5f5" stroke="transparent" points="295,-163.7 295,-186.7 373,-186.7 373,-163.7 295,-163.7"/>
<polygon fill="none" stroke="#000000" points="295,-163.7 295,-186.7 373,-186.7 373,-163.7 295,-163.7"/>
<text text-anchor="start" x="299.7713" y="-172.8" font-family="Helvetica,sans-Serif" font-weight="bold" font-size="11.00" fill="#000000">plantas</text>
<text text-anchor="start" x="338.5219" y="-171.8" font-family="Helvetica,sans-Serif" font-size="11.00" fill="#000000">[table]</text>
<polygon fill="none" stroke="#000000" points="295,-141.7 295,-163.7 373,-163.7 373,-141.7 295,-141.7"/>
<image xlink:href="../../images/primaryKeys.png" width="11px" height="12px" preserveAspectRatio="xMinYMin meet" x="300" y="-158.7"/>
<text text-anchor="start" x="316" y="-148.8" font-family="Helvetica,sans-Serif" font-size="11.00" fill="#000000">idplanta</text>
<polygon fill="none" stroke="#000000" points="295,-119.7 295,-141.7 373,-141.7 373,-119.7 295,-119.7"/>
<image xlink:href="../../images/foreignKeys.png" width="11px" height="12px" preserveAspectRatio="xMinYMin meet" x="300" y="-136.7"/>
<text text-anchor="start" x="316" y="-126.8" font-family="Helvetica,sans-Serif" font-size="11.00" fill="#000000">idusuario</text>
<polygon fill="#ffffff" stroke="transparent" points="295,-97.7 295,-119.7 373,-119.7 373,-97.7 295,-97.7"/>
<polygon fill="none" stroke="#000000" points="295,-97.7 295,-119.7 373,-119.7 373,-97.7 295,-97.7"/>
<text text-anchor="start" x="316" y="-104.8" font-family="Helvetica,sans-Serif" font-size="11.00" fill="#000000">nombre</text>
<polygon fill="#ffffff" stroke="transparent" points="295,-75.7 295,-97.7 373,-97.7 373,-75.7 295,-75.7"/>
<polygon fill="none" stroke="#000000" points="295,-75.7 295,-97.7 373,-97.7 373,-75.7 295,-75.7"/>
<text text-anchor="start" x="316" y="-82.8" font-family="Helvetica,sans-Serif" font-size="11.00" fill="#000000">rnc</text>
<polygon fill="none" stroke="#000000" points="295,-56.7 295,-75.7 373,-75.7 373,-56.7 295,-56.7"/>
<text text-anchor="start" x="298" y="-62.8" font-family="Helvetica,sans-Serif" font-size="11.00" fill="#000000">...</text>
<polygon fill="#ffffff" stroke="transparent" points="295,-37.7 295,-56.7 319,-56.7 319,-37.7 295,-37.7"/>
<polygon fill="none" stroke="#000000" points="295,-37.7 295,-56.7 319,-56.7 319,-37.7 295,-37.7"/>
<text text-anchor="start" x="298" y="-43.8" font-family="Helvetica,sans-Serif" font-size="11.00" fill="#000000">&lt; 1</text>
<polygon fill="#ffffff" stroke="transparent" points="319,-37.7 319,-56.7 359,-56.7 359,-37.7 319,-37.7"/>
<polygon fill="none" stroke="#000000" points="319,-37.7 319,-56.7 359,-56.7 359,-37.7 319,-37.7"/>
<text text-anchor="start" x="323.6105" y="-43.8" font-family="Helvetica,sans-Serif" font-size="11.00" fill="#000000">0 rows</text>
<polygon fill="#ffffff" stroke="transparent" points="359,-37.7 359,-56.7 373,-56.7 373,-37.7 359,-37.7"/>
<polygon fill="none" stroke="#000000" points="359,-37.7 359,-56.7 373,-56.7 373,-37.7 359,-37.7"/>
<text text-anchor="start" x="363.8862" y="-43.8" font-family="Helvetica,sans-Serif" font-size="11.00" fill="#000000"> &#160;</text>
</a>
</g>
</g>
<!-- plantas&#45;&gt;usuarios -->
<g id="edge4" class="edge">
<title>plantas:w&#45;&gt;usuarios:e</title>
<path fill="none" stroke="#000000" d="M280.4786,-132.9542C221.5674,-154.2781 319.6423,-319.7 237.5,-319.7"/>
<polygon fill="#000000" stroke="#000000" points="287.0947,-131.9272 295.5523,-134.2574 291.0473,-131.3136 295,-130.7 295,-130.7 295,-130.7 291.0473,-131.3136 294.4477,-127.1426 287.0947,-131.9272 287.0947,-131.9272"/>
<ellipse fill="none" stroke="#000000" cx="283.9326" cy="-132.4181" rx="3.2" ry="3.2"/>
</g>
</g>
</svg>
