<?xml version="1.0" encoding="UTF-8" standalone="no"?>
<!DOCTYPE svg PUBLIC "-//W3C//DTD SVG 1.1//EN"
 "http://www.w3.org/Graphics/SVG/1.1/DTD/svg11.dtd">
<!-- Generated by graphviz version 2.40.1 (20161225.0304)
 -->
<!-- Title: compactRelationshipsDiagram Pages: 1 -->
<svg width="249pt" height="577pt"
 viewBox="0.00 0.00 249.00 577.20" xmlns="http://www.w3.org/2000/svg" xmlns:xlink="http://www.w3.org/1999/xlink">
<g id="graph0" class="graph" transform="scale(1 1) rotate(0) translate(4 573.2)">
<title>compactRelationshipsDiagram</title>
<polygon fill="#ffffff" stroke="transparent" points="-4,4 -4,-573.2 245,-573.2 245,4 -4,4"/>
<text text-anchor="middle" x="72.4936" y="-7.3" font-family="Helvetica,sans-Serif" font-size="11.00" fill="#000000">Generated by SchemaSpy</text>
<!-- anuncios -->
<g id="node1" class="node">
<title>anuncios</title>
<g id="a_node1"><a xlink:href="../../tables/anuncios.html" xlink:title="anuncios" target="_top">
<polygon fill="#ffffff" stroke="transparent" points="143.5,-460.2 143.5,-565.2 230.5,-565.2 230.5,-460.2 143.5,-460.2"/>
<polygon fill="#f5f5f5" stroke="transparent" points="144,-541.7 144,-564.7 231,-564.7 231,-541.7 144,-541.7"/>
<polygon fill="none" stroke="#000000" points="144,-541.7 144,-564.7 231,-564.7 231,-541.7 144,-541.7"/>
<text text-anchor="start" x="148.9923" y="-550.8" font-family="Helvetica,sans-Serif" font-weight="bold" font-size="11.00" fill="#000000">anuncios</text>
<text text-anchor="start" x="196.5219" y="-549.8" font-family="Helvetica,sans-Serif" font-size="11.00" fill="#000000">[table]</text>
<polygon fill="none" stroke="#000000" points="144,-519.7 144,-541.7 231,-541.7 231,-519.7 144,-519.7"/>
<image xlink:href="../../images/primaryKeys.png" width="11px" height="12px" preserveAspectRatio="xMinYMin meet" x="149" y="-536.7"/>
<text text-anchor="start" x="169" y="-526.8" font-family="Helvetica,sans-Serif" font-size="11.00" fill="#000000">idanuncio</text>
<polygon fill="none" stroke="#000000" points="144,-497.7 144,-519.7 231,-519.7 231,-497.7 144,-497.7"/>
<image xlink:href="../../images/foreignKeys.png" width="11px" height="12px" preserveAspectRatio="xMinYMin meet" x="149" y="-514.7"/>
<text text-anchor="start" x="169" y="-504.8" font-family="Helvetica,sans-Serif" font-size="11.00" fill="#000000">idusuario</text>
<polygon fill="none" stroke="#000000" points="144,-478.7 144,-497.7 231,-497.7 231,-478.7 144,-478.7"/>
<text text-anchor="start" x="147" y="-484.8" font-family="Helvetica,sans-Serif" font-size="11.00" fill="#000000">...</text>
<polygon fill="#ffffff" stroke="transparent" points="144,-459.7 144,-478.7 176,-478.7 176,-459.7 144,-459.7"/>
<polygon fill="none" stroke="#000000" points="144,-459.7 144,-478.7 176,-478.7 176,-459.7 144,-459.7"/>
<text text-anchor="start" x="147" y="-465.8" font-family="Helvetica,sans-Serif" font-size="11.00" fill="#000000">&lt; 1</text>
<polygon fill="#ffffff" stroke="transparent" points="176,-459.7 176,-478.7 213,-478.7 213,-459.7 176,-459.7"/>
<polygon fill="none" stroke="#000000" points="176,-459.7 176,-478.7 213,-478.7 213,-459.7 176,-459.7"/>
<text text-anchor="start" x="183.1105" y="-465.8" font-family="Helvetica,sans-Serif" font-size="11.00" fill="#000000">1 row</text>
<polygon fill="#ffffff" stroke="transparent" points="213,-459.7 213,-478.7 231,-478.7 231,-459.7 213,-459.7"/>
<polygon fill="none" stroke="#000000" points="213,-459.7 213,-478.7 231,-478.7 231,-459.7 213,-459.7"/>
<text text-anchor="start" x="221.8862" y="-465.8" font-family="Helvetica,sans-Serif" font-size="11.00" fill="#000000"> &#160;</text>
</a>
</g>
</g>
<!-- usuarios -->
<g id="node5" class="node">
<title>usuarios</title>
<g id="a_node5"><a xlink:href="../../tables/usuarios.html" xlink:title="usuarios" target="_top">
<polygon fill="#ffffff" stroke="transparent" points="8,-249.2 8,-354.2 92,-354.2 92,-249.2 8,-249.2"/>
<polygon fill="#f5f5f5" stroke="transparent" points="8,-330.7 8,-353.7 92,-353.7 92,-330.7 8,-330.7"/>
<polygon fill="none" stroke="#000000" points="8,-330.7 8,-353.7 92,-353.7 92,-330.7 8,-330.7"/>
<text text-anchor="start" x="12.7188" y="-339.8" font-family="Helvetica,sans-Serif" font-weight="bold" font-size="11.00" fill="#000000">usuarios</text>
<text text-anchor="start" x="57.5219" y="-338.8" font-family="Helvetica,sans-Serif" font-size="11.00" fill="#000000">[table]</text>
<polygon fill="none" stroke="#000000" points="8,-308.7 8,-330.7 92,-330.7 92,-308.7 8,-308.7"/>
<image xlink:href="../../images/primaryKeys.png" width="11px" height="12px" preserveAspectRatio="xMinYMin meet" x="13" y="-325.7"/>
<text text-anchor="start" x="32" y="-315.8" font-family="Helvetica,sans-Serif" font-size="11.00" fill="#000000">idusuario</text>
<polygon fill="#ffffff" stroke="transparent" points="8,-286.7 8,-308.7 92,-308.7 92,-286.7 8,-286.7"/>
<polygon fill="none" stroke="#000000" points="8,-286.7 8,-308.7 92,-308.7 92,-286.7 8,-286.7"/>
<text text-anchor="start" x="32" y="-293.8" font-family="Helvetica,sans-Serif" font-size="11.00" fill="#000000">username</text>
<polygon fill="none" stroke="#000000" points="8,-267.7 8,-286.7 92,-286.7 92,-267.7 8,-267.7"/>
<text text-anchor="start" x="11" y="-273.8" font-family="Helvetica,sans-Serif" font-size="11.00" fill="#000000">...</text>
<polygon fill="#ffffff" stroke="transparent" points="8,-248.7 8,-267.7 26,-267.7 26,-248.7 8,-248.7"/>
<polygon fill="none" stroke="#000000" points="8,-248.7 8,-267.7 26,-267.7 26,-248.7 8,-248.7"/>
<text text-anchor="start" x="11" y="-254.8" font-family="Helvetica,sans-Serif" font-size="11.00" fill="#000000"> &#160;</text>
<polygon fill="#ffffff" stroke="transparent" points="26,-248.7 26,-267.7 67,-267.7 67,-248.7 26,-248.7"/>
<polygon fill="none" stroke="#000000" points="26,-248.7 26,-267.7 67,-267.7 67,-248.7 26,-248.7"/>
<text text-anchor="start" x="31.6105" y="-254.8" font-family="Helvetica,sans-Serif" font-size="11.00" fill="#000000">9 rows</text>
<polygon fill="#ffffff" stroke="transparent" points="67,-248.7 67,-267.7 92,-267.7 92,-248.7 67,-248.7"/>
<polygon fill="none" stroke="#000000" points="67,-248.7 67,-267.7 92,-267.7 92,-248.7 67,-248.7"/>
<text text-anchor="start" x="73.4053" y="-254.8" font-family="Helvetica,sans-Serif" font-size="11.00" fill="#000000">4 &gt;</text>
</a>
</g>
</g>
<!-- anuncios&#45;&gt;usuarios -->
<g id="edge1" class="edge">
<title>anuncios:w&#45;&gt;usuarios:e</title>
<path fill="none" stroke="#000000" d="M129.6514,-506.4458C71.7668,-485.1219 173.5061,-319.7 92,-319.7"/>
<polygon fill="#000000" stroke="#000000" points="136.0969,-507.4584 143.4413,-512.2564 140.0485,-508.0792 144,-508.7 144,-508.7 144,-508.7 140.0485,-508.0792 144.5587,-505.1436 136.0969,-507.4584 136.0969,-507.4584"/>
<ellipse fill="none" stroke="#000000" cx="132.9357" cy="-506.9617" rx="3.2" ry="3.2"/>
</g>
<!-- colmados -->
<g id="node2" class="node">
<title>colmados</title>
<g id="a_node2"><a xlink:href="../../tables/colmados.html" xlink:title="colmados" target="_top">
<polygon fill="#ffffff" stroke="transparent" points="142,-334.2 142,-439.2 232,-439.2 232,-334.2 142,-334.2"/>
<polygon fill="#f5f5f5" stroke="transparent" points="142,-415.7 142,-438.7 232,-438.7 232,-415.7 142,-415.7"/>
<polygon fill="none" stroke="#000000" points="142,-415.7 142,-438.7 232,-438.7 232,-415.7 142,-415.7"/>
<text text-anchor="start" x="146.9688" y="-424.8" font-family="Helvetica,sans-Serif" font-weight="bold" font-size="11.00" fill="#000000">colmados</text>
<text text-anchor="start" x="197.5219" y="-423.8" font-family="Helvetica,sans-Serif" font-size="11.00" fill="#000000">[table]</text>
<polygon fill="none" stroke="#000000" points="142,-393.7 142,-415.7 232,-415.7 232,-393.7 142,-393.7"/>
<image xlink:href="../../images/primaryKeys.png" width="11px" height="12px" preserveAspectRatio="xMinYMin meet" x="147" y="-410.7"/>
<text text-anchor="start" x="169" y="-400.8" font-family="Helvetica,sans-Serif" font-size="11.00" fill="#000000">idplanta</text>
<polygon fill="none" stroke="#000000" points="142,-371.7 142,-393.7 232,-393.7 232,-371.7 142,-371.7"/>
<image xlink:href="../../images/foreignKeys.png" width="11px" height="12px" preserveAspectRatio="xMinYMin meet" x="147" y="-388.7"/>
<text text-anchor="start" x="169" y="-378.8" font-family="Helvetica,sans-Serif" font-size="11.00" fill="#000000">idusuario</text>
<polygon fill="none" stroke="#000000" points="142,-352.7 142,-371.7 232,-371.7 232,-352.7 142,-352.7"/>
<text text-anchor="start" x="145" y="-358.8" font-family="Helvetica,sans-Serif" font-size="11.00" fill="#000000">...</text>
<polygon fill="#ffffff" stroke="transparent" points="142,-333.7 142,-352.7 172,-352.7 172,-333.7 142,-333.7"/>
<polygon fill="none" stroke="#000000" points="142,-333.7 142,-352.7 172,-352.7 172,-333.7 142,-333.7"/>
<text text-anchor="start" x="145" y="-339.8" font-family="Helvetica,sans-Serif" font-size="11.00" fill="#000000">&lt; 1</text>
<polygon fill="#ffffff" stroke="transparent" points="172,-333.7 172,-352.7 215,-352.7 215,-333.7 172,-333.7"/>
<polygon fill="none" stroke="#000000" points="172,-333.7 172,-352.7 215,-352.7 215,-333.7 172,-333.7"/>
<text text-anchor="start" x="179.6105" y="-339.8" font-family="Helvetica,sans-Serif" font-size="11.00" fill="#000000">0 rows</text>
<polygon fill="#ffffff" stroke="transparent" points="215,-333.7 215,-352.7 232,-352.7 232,-333.7 215,-333.7"/>
<polygon fill="none" stroke="#000000" points="215,-333.7 215,-352.7 232,-352.7 232,-333.7 215,-333.7"/>
<text text-anchor="start" x="222.8862" y="-339.8" font-family="Helvetica,sans-Serif" font-size="11.00" fill="#000000"> &#160;</text>
</a>
</g>
</g>
<!-- colmados&#45;&gt;usuarios -->
<g id="edge2" class="edge">
<title>colmados:w&#45;&gt;usuarios:e</title>
<path fill="none" stroke="#000000" d="M128.0596,-377.7565C111.9507,-362.9048 121.6027,-319.7 92,-319.7"/>
<polygon fill="#000000" stroke="#000000" points="134.4601,-380.0262 140.7968,-386.093 138.23,-381.3631 142,-382.7 142,-382.7 142,-382.7 138.23,-381.3631 143.2032,-379.307 134.4601,-380.0262 134.4601,-380.0262"/>
<ellipse fill="none" stroke="#000000" cx="131.4441" cy="-378.9566" rx="3.2" ry="3.2"/>
</g>
<!-- pedidos -->
<g id="node3" class="node">
<title>pedidos</title>
<g id="a_node3"><a xlink:href="../../tables/pedidos.html" xlink:title="pedidos" target="_top">
<polygon fill="#ffffff" stroke="transparent" points="141,-208.2 141,-313.2 233,-313.2 233,-208.2 141,-208.2"/>
<polygon fill="#f5f5f5" stroke="transparent" points="141,-289.7 141,-312.7 233,-312.7 233,-289.7 141,-289.7"/>
<polygon fill="none" stroke="#000000" points="141,-289.7 141,-312.7 233,-312.7 233,-289.7 141,-289.7"/>
<text text-anchor="start" x="146" y="-298.8" font-family="Helvetica,sans-Serif" font-weight="bold" font-size="11.00" fill="#000000">pedidos</text>
<text text-anchor="start" x="198.0437" y="-297.8" font-family="Helvetica,sans-Serif" font-size="11.00" fill="#000000">[table]</text>
<polygon fill="none" stroke="#000000" points="141,-267.7 141,-289.7 233,-289.7 233,-267.7 141,-267.7"/>
<image xlink:href="../../images/primaryKeys.png" width="11px" height="12px" preserveAspectRatio="xMinYMin meet" x="146" y="-284.7"/>
<text text-anchor="start" x="161" y="-274.8" font-family="Helvetica,sans-Serif" font-size="11.00" fill="#000000">idpedido</text>
<polygon fill="none" stroke="#000000" points="141,-245.7 141,-267.7 233,-267.7 233,-245.7 141,-245.7"/>
<image xlink:href="../../images/foreignKeys.png" width="11px" height="12px" preserveAspectRatio="xMinYMin meet" x="146" y="-262.7"/>
<text text-anchor="start" x="161" y="-252.8" font-family="Helvetica,sans-Serif" font-size="11.00" fill="#000000">idusuario</text>
<polygon fill="none" stroke="#000000" points="141,-226.7 141,-245.7 233,-245.7 233,-226.7 141,-226.7"/>
<text text-anchor="start" x="144" y="-232.8" font-family="Helvetica,sans-Serif" font-size="11.00" fill="#000000">...</text>
<polygon fill="#ffffff" stroke="transparent" points="141,-207.7 141,-226.7 172,-226.7 172,-207.7 141,-207.7"/>
<polygon fill="none" stroke="#000000" points="141,-207.7 141,-226.7 172,-226.7 172,-207.7 141,-207.7"/>
<text text-anchor="start" x="144" y="-213.8" font-family="Helvetica,sans-Serif" font-size="11.00" fill="#000000">&lt; 1</text>
<polygon fill="#ffffff" stroke="transparent" points="172,-207.7 172,-226.7 215,-226.7 215,-207.7 172,-207.7"/>
<polygon fill="none" stroke="#000000" points="172,-207.7 172,-226.7 215,-226.7 215,-207.7 172,-207.7"/>
<text text-anchor="start" x="179.6105" y="-213.8" font-family="Helvetica,sans-Serif" font-size="11.00" fill="#000000">3 rows</text>
<polygon fill="#ffffff" stroke="transparent" points="215,-207.7 215,-226.7 233,-226.7 233,-207.7 215,-207.7"/>
<polygon fill="none" stroke="#000000" points="215,-207.7 215,-226.7 233,-226.7 233,-207.7 215,-207.7"/>
<text text-anchor="start" x="223.8862" y="-213.8" font-family="Helvetica,sans-Serif" font-size="11.00" fill="#000000"> &#160;</text>
</a>
</g>
</g>
<!-- pedidos&#45;&gt;usuarios -->
<g id="edge3" class="edge">
<title>pedidos:w&#45;&gt;usuarios:e</title>
<path fill="none" stroke="#000000" d="M127.2151,-261.6435C111.3751,-276.4952 121.3754,-319.7 92,-319.7"/>
<polygon fill="#000000" stroke="#000000" points="133.4696,-259.4006 142.2153,-260.0887 137.2348,-258.0503 141,-256.7 141,-256.7 141,-256.7 137.2348,-258.0503 139.7847,-253.3113 133.4696,-259.4006 133.4696,-259.4006"/>
<ellipse fill="none" stroke="#000000" cx="130.4574" cy="-260.4808" rx="3.2" ry="3.2"/>
</g>
<!-- plantas -->
<g id="node4" class="node">
<title>plantas</title>
<g id="a_node4"><a xlink:href="../../tables/plantas.html" xlink:title="plantas" target="_top">
<polygon fill="#ffffff" stroke="transparent" points="148,-38.2 148,-187.2 226,-187.2 226,-38.2 148,-38.2"/>
<polygon fill="#f5f5f5" stroke="transparent" points="148,-163.7 148,-186.7 226,-186.7 226,-163.7 148,-163.7"/>
<polygon fill="none" stroke="#000000" points="148,-163.7 148,-186.7 226,-186.7 226,-163.7 148,-163.7"/>
<text text-anchor="start" x="152.7713" y="-172.8" font-family="Helvetica,sans-Serif" font-weight="bold" font-size="11.00" fill="#000000">plantas</text>
<text text-anchor="start" x="191.5219" y="-171.8" font-family="Helvetica,sans-Serif" font-size="11.00" fill="#000000">[table]</text>
<polygon fill="none" stroke="#000000" points="148,-141.7 148,-163.7 226,-163.7 226,-141.7 148,-141.7"/>
<image xlink:href="../../images/primaryKeys.png" width="11px" height="12px" preserveAspectRatio="xMinYMin meet" x="153" y="-158.7"/>
<text text-anchor="start" x="169" y="-148.8" font-family="Helvetica,sans-Serif" font-size="11.00" fill="#000000">idplanta</text>
<polygon fill="none" stroke="#000000" points="148,-119.7 148,-141.7 226,-141.7 226,-119.7 148,-119.7"/>
<image xlink:href="../../images/foreignKeys.png" width="11px" height="12px" preserveAspectRatio="xMinYMin meet" x="153" y="-136.7"/>
<text text-anchor="start" x="169" y="-126.8" font-family="Helvetica,sans-Serif" font-size="11.00" fill="#000000">idusuario</text>
<polygon fill="#ffffff" stroke="transparent" points="148,-97.7 148,-119.7 226,-119.7 226,-97.7 148,-97.7"/>
<polygon fill="none" stroke="#000000" points="148,-97.7 148,-119.7 226,-119.7 226,-97.7 148,-97.7"/>
<text text-anchor="start" x="169" y="-104.8" font-family="Helvetica,sans-Serif" font-size="11.00" fill="#000000">nombre</text>
<polygon fill="#ffffff" stroke="transparent" points="148,-75.7 148,-97.7 226,-97.7 226,-75.7 148,-75.7"/>
<polygon fill="none" stroke="#000000" points="148,-75.7 148,-97.7 226,-97.7 226,-75.7 148,-75.7"/>
<text text-anchor="start" x="169" y="-82.8" font-family="Helvetica,sans-Serif" font-size="11.00" fill="#000000">rnc</text>
<polygon fill="none" stroke="#000000" points="148,-56.7 148,-75.7 226,-75.7 226,-56.7 148,-56.7"/>
<text text-anchor="start" x="151" y="-62.8" font-family="Helvetica,sans-Serif" font-size="11.00" fill="#000000">...</text>
<polygon fill="#ffffff" stroke="transparent" points="148,-37.7 148,-56.7 172,-56.7 172,-37.7 148,-37.7"/>
<polygon fill="none" stroke="#000000" points="148,-37.7 148,-56.7 172,-56.7 172,-37.7 148,-37.7"/>
<text text-anchor="start" x="151" y="-43.8" font-family="Helvetica,sans-Serif" font-size="11.00" fill="#000000">&lt; 1</text>
<polygon fill="#ffffff" stroke="transparent" points="172,-37.7 172,-56.7 212,-56.7 212,-37.7 172,-37.7"/>
<polygon fill="none" stroke="#000000" points="172,-37.7 172,-56.7 212,-56.7 212,-37.7 172,-37.7"/>
<text text-anchor="start" x="176.6105" y="-43.8" font-family="Helvetica,sans-Serif" font-size="11.00" fill="#000000">0 rows</text>
<polygon fill="#ffffff" stroke="transparent" points="212,-37.7 212,-56.7 226,-56.7 226,-37.7 212,-37.7"/>
<polygon fill="none" stroke="#000000" points="212,-37.7 212,-56.7 226,-56.7 226,-37.7 212,-37.7"/>
<text text-anchor="start" x="216.8862" y="-43.8" font-family="Helvetica,sans-Serif" font-size="11.00" fill="#000000"> &#160;</text>
</a>
</g>
</g>
<!-- plantas&#45;&gt;usuarios -->
<g id="edge4" class="edge">
<title>plantas:w&#45;&gt;usuarios:e</title>
<path fill="none" stroke="#000000" d="M133.5267,-132.9542C74.8992,-154.2781 173.963,-319.7 92,-319.7"/>
<polygon fill="#000000" stroke="#000000" points="140.0953,-131.9312 148.554,-134.2571 144.0477,-131.3156 148,-130.7 148,-130.7 148,-130.7 144.0477,-131.3156 147.446,-127.1429 140.0953,-131.9312 140.0953,-131.9312"/>
<ellipse fill="none" stroke="#000000" cx="136.9334" cy="-132.4237" rx="3.2" ry="3.2"/>
</g>
</g>
</svg>
